<?xml version="1.0" encoding="UTF-8" standalone="no"?>
<svg
   xmlns:dc="http://purl.org/dc/elements/1.1/"
   xmlns:cc="http://creativecommons.org/ns#"
   xmlns:rdf="http://www.w3.org/1999/02/22-rdf-syntax-ns#"
   xmlns:svg="http://www.w3.org/2000/svg"
   xmlns="http://www.w3.org/2000/svg"
   xmlns:xlink="http://www.w3.org/1999/xlink"
   xmlns:sodipodi="http://sodipodi.sourceforge.net/DTD/sodipodi-0.dtd"
   xmlns:inkscape="http://www.inkscape.org/namespaces/inkscape"
   width="210mm"
   height="297mm"
   viewBox="0 0 210 297"
   version="1.1"
   id="svg8"
   sodipodi:docname="figure_3.svg"
   inkscape:version="1.0.1 (3bc2e813f5, 2020-09-07)">
  <defs
     id="defs2">
    <marker
       style="overflow:visible;"
       id="marker2263"
       refX="0.0"
       refY="0.0"
       orient="auto"
       inkscape:stockid="Arrow1Lend"
       inkscape:isstock="true">
      <path
         transform="scale(0.8) rotate(180) translate(12.5,0)"
         style="fill-rule:evenodd;stroke:#000000;stroke-width:1pt;stroke-opacity:1;fill:#000000;fill-opacity:1"
         d="M 0.0,0.0 L 5.0,-5.0 L -12.5,0.0 L 5.0,5.0 L 0.0,0.0 z "
         id="path2261" />
    </marker>
    <marker
       style="overflow:visible;"
       id="marker2164"
       refX="0.0"
       refY="0.0"
       orient="auto"
       inkscape:stockid="Arrow1Lend"
       inkscape:isstock="true"
       inkscape:collect="always">
      <path
         transform="scale(0.8) rotate(180) translate(12.5,0)"
         style="fill-rule:evenodd;stroke:#000000;stroke-width:1pt;stroke-opacity:1;fill:#000000;fill-opacity:1"
         d="M 0.0,0.0 L 5.0,-5.0 L -12.5,0.0 L 5.0,5.0 L 0.0,0.0 z "
         id="path2162" />
    </marker>
    <marker
       style="overflow:visible;"
       id="Arrow1Mend"
       refX="0.0"
       refY="0.0"
       orient="auto"
       inkscape:stockid="Arrow1Mend"
       inkscape:isstock="true">
      <path
         transform="scale(0.4) rotate(180) translate(10,0)"
         style="fill-rule:evenodd;stroke:#000000;stroke-width:1pt;stroke-opacity:1;fill:#000000;fill-opacity:1"
         d="M 0.0,0.0 L 5.0,-5.0 L -12.5,0.0 L 5.0,5.0 L 0.0,0.0 z "
         id="path848" />
    </marker>
    <marker
       style="overflow:visible"
       id="Arrow1Mstart"
       refX="0.0"
       refY="0.0"
       orient="auto"
       inkscape:stockid="Arrow1Mstart"
       inkscape:isstock="true">
      <path
         transform="scale(0.4) translate(10,0)"
         style="fill-rule:evenodd;stroke:#000000;stroke-width:1pt;stroke-opacity:1;fill:#000000;fill-opacity:1"
         d="M 0.0,0.0 L 5.0,-5.0 L -12.5,0.0 L 5.0,5.0 L 0.0,0.0 z "
         id="path845" />
    </marker>
    <marker
       style="overflow:visible"
       id="marker1221"
       refX="0.0"
       refY="0.0"
       orient="auto"
       inkscape:stockid="Arrow1Lstart"
       inkscape:isstock="true">
      <path
         transform="scale(0.8) translate(12.5,0)"
         style="fill-rule:evenodd;stroke:#000000;stroke-width:1pt;stroke-opacity:1;fill:#000000;fill-opacity:1"
         d="M 0.0,0.0 L 5.0,-5.0 L -12.5,0.0 L 5.0,5.0 L 0.0,0.0 z "
         id="path1219" />
    </marker>
    <marker
       style="overflow:visible;"
       id="marker1181"
       refX="0.0"
       refY="0.0"
       orient="auto"
       inkscape:stockid="Arrow1Lend"
       inkscape:isstock="true"
       inkscape:collect="always">
      <path
         transform="scale(0.8) rotate(180) translate(12.5,0)"
         style="fill-rule:evenodd;stroke:#000000;stroke-width:1pt;stroke-opacity:1;fill:#000000;fill-opacity:1"
         d="M 0.0,0.0 L 5.0,-5.0 L -12.5,0.0 L 5.0,5.0 L 0.0,0.0 z "
         id="path1179" />
    </marker>
    <marker
       style="overflow:visible;"
       id="Arrow1Lend"
       refX="0.0"
       refY="0.0"
       orient="auto"
       inkscape:stockid="Arrow1Lend"
       inkscape:isstock="true"
       inkscape:collect="always">
      <path
         transform="scale(0.8) rotate(180) translate(12.5,0)"
         style="fill-rule:evenodd;stroke:#000000;stroke-width:1pt;stroke-opacity:1;fill:#000000;fill-opacity:1"
         d="M 0.0,0.0 L 5.0,-5.0 L -12.5,0.0 L 5.0,5.0 L 0.0,0.0 z "
         id="path842" />
    </marker>
    <marker
       style="overflow:visible"
       id="Arrow1Lstart"
       refX="0.0"
       refY="0.0"
       orient="auto"
       inkscape:stockid="Arrow1Lstart"
       inkscape:isstock="true"
       inkscape:collect="always">
      <path
         transform="scale(0.8) translate(12.5,0)"
         style="fill-rule:evenodd;stroke:#000000;stroke-width:1pt;stroke-opacity:1;fill:#000000;fill-opacity:1"
         d="M 0.0,0.0 L 5.0,-5.0 L -12.5,0.0 L 5.0,5.0 L 0.0,0.0 z "
         id="path839" />
    </marker>
    <g
       id="g9416">
      <symbol
         overflow="visible"
         id="symbol532">
        <path
           style="stroke:none;"
           d=""
           id="path1471" />
      </symbol>
      <symbol
         overflow="visible"
         id="symbol6214">
        <path
           style="stroke:none;"
           d="M 3.890625 -3.734375 C 3.625 -3.71875 3.421875 -3.5 3.421875 -3.28125 C 3.421875 -3.140625 3.515625 -2.984375 3.734375 -2.984375 C 3.953125 -2.984375 4.1875 -3.15625 4.1875 -3.546875 C 4.1875 -4 3.765625 -4.40625 3 -4.40625 C 1.6875 -4.40625 1.3125 -3.390625 1.3125 -2.953125 C 1.3125 -2.171875 2.046875 -2.03125 2.34375 -1.96875 C 2.859375 -1.859375 3.375 -1.75 3.375 -1.203125 C 3.375 -0.953125 3.15625 -0.109375 1.953125 -0.109375 C 1.8125 -0.109375 1.046875 -0.109375 0.8125 -0.640625 C 1.203125 -0.59375 1.453125 -0.890625 1.453125 -1.171875 C 1.453125 -1.390625 1.28125 -1.515625 1.078125 -1.515625 C 0.8125 -1.515625 0.515625 -1.3125 0.515625 -0.859375 C 0.515625 -0.296875 1.09375 0.109375 1.9375 0.109375 C 3.5625 0.109375 3.953125 -1.09375 3.953125 -1.546875 C 3.953125 -1.90625 3.765625 -2.15625 3.640625 -2.265625 C 3.375 -2.546875 3.078125 -2.609375 2.640625 -2.6875 C 2.28125 -2.765625 1.890625 -2.84375 1.890625 -3.296875 C 1.890625 -3.578125 2.125 -4.1875 3 -4.1875 C 3.25 -4.1875 3.75 -4.109375 3.890625 -3.734375 Z M 3.890625 -3.734375 "
           id="path4328" />
      </symbol>
    </g>
    <g
       id="g1227">
      <symbol
         overflow="visible"
         id="symbol3908">
        <path
           style="stroke:none;"
           d=""
           id="path736" />
      </symbol>
      <symbol
         overflow="visible"
         id="symbol4546">
        <path
           style="stroke:none;"
           d="M 3.71875 -3.765625 C 3.53125 -4.140625 3.25 -4.40625 2.796875 -4.40625 C 1.640625 -4.40625 0.40625 -2.9375 0.40625 -1.484375 C 0.40625 -0.546875 0.953125 0.109375 1.71875 0.109375 C 1.921875 0.109375 2.421875 0.0625 3.015625 -0.640625 C 3.09375 -0.21875 3.453125 0.109375 3.921875 0.109375 C 4.28125 0.109375 4.5 -0.125 4.671875 -0.4375 C 4.828125 -0.796875 4.96875 -1.40625 4.96875 -1.421875 C 4.96875 -1.53125 4.875 -1.53125 4.84375 -1.53125 C 4.75 -1.53125 4.734375 -1.484375 4.703125 -1.34375 C 4.53125 -0.703125 4.359375 -0.109375 3.953125 -0.109375 C 3.671875 -0.109375 3.65625 -0.375 3.65625 -0.5625 C 3.65625 -0.78125 3.671875 -0.875 3.78125 -1.3125 C 3.890625 -1.71875 3.90625 -1.828125 4 -2.203125 L 4.359375 -3.59375 C 4.421875 -3.875 4.421875 -3.890625 4.421875 -3.9375 C 4.421875 -4.109375 4.3125 -4.203125 4.140625 -4.203125 C 3.890625 -4.203125 3.75 -3.984375 3.71875 -3.765625 Z M 3.078125 -1.1875 C 3.015625 -1 3.015625 -0.984375 2.875 -0.8125 C 2.4375 -0.265625 2.03125 -0.109375 1.75 -0.109375 C 1.25 -0.109375 1.109375 -0.65625 1.109375 -1.046875 C 1.109375 -1.546875 1.421875 -2.765625 1.65625 -3.234375 C 1.96875 -3.8125 2.40625 -4.1875 2.8125 -4.1875 C 3.453125 -4.1875 3.59375 -3.375 3.59375 -3.3125 C 3.59375 -3.25 3.578125 -3.1875 3.5625 -3.140625 Z M 3.078125 -1.1875 "
           id="path4320" />
      </symbol>
    </g>
    <g
       id="g6174">
      <symbol
         overflow="visible"
         id="symbol3009">
        <path
           style="stroke:none;"
           d=""
           id="path9307" />
      </symbol>
      <symbol
         overflow="visible"
         id="symbol6863">
        <path
           style="stroke:none;"
           d="M 4.53125 -4.984375 C 4.53125 -5.640625 4.359375 -7.03125 3.34375 -7.03125 C 1.953125 -7.03125 0.421875 -4.21875 0.421875 -1.9375 C 0.421875 -1 0.703125 0.109375 1.609375 0.109375 C 3.015625 0.109375 4.53125 -2.75 4.53125 -4.984375 Z M 1.46875 -3.625 C 1.640625 -4.25 1.84375 -5.046875 2.25 -5.765625 C 2.515625 -6.25 2.875 -6.8125 3.328125 -6.8125 C 3.8125 -6.8125 3.875 -6.171875 3.875 -5.609375 C 3.875 -5.109375 3.796875 -4.609375 3.5625 -3.625 Z M 3.46875 -3.296875 C 3.359375 -2.84375 3.15625 -2 2.765625 -1.28125 C 2.421875 -0.59375 2.046875 -0.109375 1.609375 -0.109375 C 1.28125 -0.109375 1.078125 -0.40625 1.078125 -1.328125 C 1.078125 -1.75 1.140625 -2.328125 1.390625 -3.296875 Z M 3.46875 -3.296875 "
           id="path2072" />
      </symbol>
    </g>
    <g
       id="g9755">
      <symbol
         overflow="visible"
         id="symbol5141">
        <path
           style="stroke:none;"
           d=""
           id="path723" />
      </symbol>
      <symbol
         overflow="visible"
         id="symbol252">
        <path
           style="stroke:none;"
           d="M 4.25 -6.015625 C 4.25 -6.359375 4.25 -6.5 5.203125 -6.5 L 5.53125 -6.5 L 5.53125 -6.8125 C 5.171875 -6.78125 4.25 -6.78125 3.84375 -6.78125 C 3.4375 -6.78125 2.515625 -6.78125 2.15625 -6.8125 L 2.15625 -6.5 L 2.484375 -6.5 C 3.421875 -6.5 3.421875 -6.375 3.421875 -6.015625 L 3.421875 -1.59375 C 2.125 -1.9375 2.078125 -3.484375 2.078125 -4.125 C 2.0625 -5.328125 1.625 -5.515625 1.1875 -5.515625 L 0.8125 -5.515625 C 0.671875 -5.515625 0.5625 -5.515625 0.5625 -5.40625 C 0.5625 -5.359375 0.59375 -5.3125 0.65625 -5.296875 C 0.984375 -5.265625 1.234375 -5.125 1.25 -3.953125 C 1.25 -3.71875 1.28125 -2.9375 1.75 -2.265625 C 2.140625 -1.71875 2.75 -1.4375 3.421875 -1.34375 L 3.421875 -0.78125 C 3.421875 -0.453125 3.421875 -0.3125 2.484375 -0.3125 L 2.15625 -0.3125 L 2.15625 0 C 2.515625 -0.03125 3.421875 -0.03125 3.84375 -0.03125 C 4.25 -0.03125 5.171875 -0.03125 5.53125 0 L 5.53125 -0.3125 L 5.203125 -0.3125 C 4.25 -0.3125 4.25 -0.4375 4.25 -0.78125 L 4.25 -1.34375 C 4.96875 -1.4375 5.578125 -1.734375 5.96875 -2.25 C 6.484375 -2.953125 6.5 -3.75 6.5 -4.1875 C 6.5 -4.34375 6.515625 -5.234375 7.046875 -5.296875 C 7.109375 -5.3125 7.171875 -5.328125 7.171875 -5.40625 C 7.171875 -5.515625 7.09375 -5.515625 6.9375 -5.515625 L 6.5625 -5.515625 C 6.171875 -5.515625 5.6875 -5.453125 5.671875 -4 C 5.65625 -2.90625 5.328125 -1.859375 4.25 -1.59375 Z M 4.25 -6.015625 "
           id="path2829" />
      </symbol>
    </g>
    <marker
       style="overflow:visible"
       id="marker2263-9"
       refX="0"
       refY="0"
       orient="auto"
       inkscape:stockid="Arrow1Lend"
       inkscape:isstock="true">
      <path
         transform="matrix(-0.8,0,0,-0.8,-10,0)"
         style="fill:#000000;fill-opacity:1;fill-rule:evenodd;stroke:#000000;stroke-width:1pt;stroke-opacity:1"
         d="M 0,0 5,-5 -12.5,0 5,5 Z"
         id="path2261-1" />
    </marker>
    <g
       id="g3182">
      <symbol
         overflow="visible"
         id="symbol1747">
        <path
           style="stroke:none;"
           d=""
           id="path2407" />
      </symbol>
      <symbol
         overflow="visible"
         id="symbol1679">
        <path
           style="stroke:none;"
           d="M 3.890625 -3.734375 C 3.625 -3.71875 3.421875 -3.5 3.421875 -3.28125 C 3.421875 -3.140625 3.515625 -2.984375 3.734375 -2.984375 C 3.953125 -2.984375 4.1875 -3.15625 4.1875 -3.546875 C 4.1875 -4 3.765625 -4.40625 3 -4.40625 C 1.6875 -4.40625 1.3125 -3.390625 1.3125 -2.953125 C 1.3125 -2.171875 2.046875 -2.03125 2.34375 -1.96875 C 2.859375 -1.859375 3.375 -1.75 3.375 -1.203125 C 3.375 -0.953125 3.15625 -0.109375 1.953125 -0.109375 C 1.8125 -0.109375 1.046875 -0.109375 0.8125 -0.640625 C 1.203125 -0.59375 1.453125 -0.890625 1.453125 -1.171875 C 1.453125 -1.390625 1.28125 -1.515625 1.078125 -1.515625 C 0.8125 -1.515625 0.515625 -1.3125 0.515625 -0.859375 C 0.515625 -0.296875 1.09375 0.109375 1.9375 0.109375 C 3.5625 0.109375 3.953125 -1.09375 3.953125 -1.546875 C 3.953125 -1.90625 3.765625 -2.15625 3.640625 -2.265625 C 3.375 -2.546875 3.078125 -2.609375 2.640625 -2.6875 C 2.28125 -2.765625 1.890625 -2.84375 1.890625 -3.296875 C 1.890625 -3.578125 2.125 -4.1875 3 -4.1875 C 3.25 -4.1875 3.75 -4.109375 3.890625 -3.734375 Z M 3.890625 -3.734375 "
           id="path4380" />
      </symbol>
      <symbol
         overflow="visible"
         id="symbol590">
        <path
           style="stroke:none;"
           d=""
           id="path4567" />
      </symbol>
      <symbol
         overflow="visible"
         id="symbol2852">
        <path
           style="stroke:none;"
           d="M 5.734375 -2.109375 C 5.734375 -2.71875 5.421875 -3.078125 4.6875 -3.078125 C 4.125 -3.078125 3.75 -2.78125 3.5625 -2.421875 C 3.421875 -2.921875 3.046875 -3.078125 2.546875 -3.078125 C 1.96875 -3.078125 1.609375 -2.765625 1.40625 -2.390625 L 1.40625 -3.078125 L 0.375 -3 L 0.375 -2.75 C 0.84375 -2.75 0.90625 -2.703125 0.90625 -2.359375 L 0.90625 -0.546875 C 0.90625 -0.25 0.828125 -0.25 0.375 -0.25 L 0.375 0 C 0.390625 0 0.875 -0.03125 1.171875 -0.03125 C 1.421875 -0.03125 1.90625 0 1.96875 0 L 1.96875 -0.25 C 1.515625 -0.25 1.453125 -0.25 1.453125 -0.546875 L 1.453125 -1.8125 C 1.453125 -2.53125 2.03125 -2.875 2.484375 -2.875 C 2.96875 -2.875 3.03125 -2.5 3.03125 -2.140625 L 3.03125 -0.546875 C 3.03125 -0.25 2.96875 -0.25 2.515625 -0.25 L 2.515625 0 C 2.53125 0 3.015625 -0.03125 3.3125 -0.03125 C 3.5625 -0.03125 4.046875 0 4.109375 0 L 4.109375 -0.25 C 3.65625 -0.25 3.59375 -0.25 3.59375 -0.546875 L 3.59375 -1.8125 C 3.59375 -2.53125 4.171875 -2.875 4.625 -2.875 C 5.109375 -2.875 5.171875 -2.5 5.171875 -2.140625 L 5.171875 -0.546875 C 5.171875 -0.25 5.109375 -0.25 4.65625 -0.25 L 4.65625 0 C 4.671875 0 5.15625 -0.03125 5.453125 -0.03125 C 5.703125 -0.03125 6.1875 0 6.25 0 L 6.25 -0.25 C 5.796875 -0.25 5.734375 -0.25 5.734375 -0.546875 Z M 5.734375 -2.109375 "
           id="path6294" />
      </symbol>
      <symbol
         overflow="visible"
         id="symbol1652">
        <path
           style="stroke:none;"
           d="M 3.109375 -1.875 C 3.109375 -2.234375 3.109375 -2.5 2.78125 -2.765625 C 2.5 -3 2.171875 -3.109375 1.75 -3.109375 C 1.09375 -3.109375 0.625 -2.859375 0.625 -2.4375 C 0.625 -2.203125 0.78125 -2.09375 0.96875 -2.09375 C 1.15625 -2.09375 1.296875 -2.234375 1.296875 -2.421875 C 1.296875 -2.53125 1.234375 -2.6875 1.046875 -2.734375 C 1.296875 -2.90625 1.703125 -2.90625 1.734375 -2.90625 C 2.125 -2.90625 2.5625 -2.65625 2.5625 -2.0625 L 2.5625 -1.859375 C 2.171875 -1.84375 1.71875 -1.8125 1.203125 -1.625 C 0.578125 -1.40625 0.390625 -1.015625 0.390625 -0.703125 C 0.390625 -0.109375 1.109375 0.0625 1.609375 0.0625 C 2.15625 0.0625 2.484375 -0.25 2.640625 -0.515625 C 2.65625 -0.234375 2.84375 0.03125 3.171875 0.03125 C 3.1875 0.03125 3.859375 0.03125 3.859375 -0.625 L 3.859375 -1.015625 L 3.625 -1.015625 L 3.625 -0.640625 C 3.625 -0.5625 3.625 -0.234375 3.359375 -0.234375 C 3.109375 -0.234375 3.109375 -0.5625 3.109375 -0.640625 Z M 2.5625 -0.984375 C 2.5625 -0.3125 1.96875 -0.125 1.65625 -0.125 C 1.296875 -0.125 0.96875 -0.359375 0.96875 -0.703125 C 0.96875 -1.09375 1.296875 -1.625 2.5625 -1.671875 Z M 2.5625 -0.984375 "
           id="path5462" />
      </symbol>
      <symbol
         overflow="visible"
         id="symbol4806">
        <path
           style="stroke:none;"
           d="M 2.359375 -1.5625 C 2.359375 -1.5625 2.3125 -1.625 2.3125 -1.625 C 2.3125 -1.65625 2.765625 -2.140625 2.828125 -2.203125 C 3.078125 -2.484375 3.3125 -2.75 3.875 -2.75 L 3.875 -3 C 3.671875 -2.984375 3.46875 -2.96875 3.28125 -2.96875 C 3.078125 -2.96875 2.796875 -2.984375 2.59375 -3 L 2.59375 -2.75 C 2.703125 -2.734375 2.734375 -2.65625 2.734375 -2.59375 C 2.734375 -2.578125 2.734375 -2.46875 2.625 -2.359375 L 2.140625 -1.8125 L 1.5625 -2.46875 C 1.484375 -2.546875 1.484375 -2.578125 1.484375 -2.609375 C 1.484375 -2.703125 1.578125 -2.75 1.671875 -2.75 L 1.671875 -3 C 1.421875 -2.984375 1.15625 -2.96875 0.890625 -2.96875 C 0.6875 -2.96875 0.421875 -2.984375 0.21875 -3 L 0.21875 -2.75 C 0.53125 -2.75 0.71875 -2.75 0.90625 -2.546875 L 1.765625 -1.546875 C 1.78125 -1.53125 1.828125 -1.484375 1.828125 -1.46875 C 1.828125 -1.453125 1.296875 -0.875 1.234375 -0.796875 C 0.96875 -0.515625 0.734375 -0.265625 0.1875 -0.25 L 0.1875 0 C 0.390625 -0.015625 0.546875 -0.03125 0.765625 -0.03125 C 0.96875 -0.03125 1.25 -0.015625 1.453125 0 L 1.453125 -0.25 C 1.375 -0.265625 1.3125 -0.3125 1.3125 -0.40625 C 1.3125 -0.546875 1.390625 -0.640625 1.5 -0.75 L 2 -1.296875 L 2.59375 -0.59375 C 2.734375 -0.453125 2.734375 -0.4375 2.734375 -0.390625 C 2.734375 -0.265625 2.578125 -0.25 2.546875 -0.25 L 2.546875 0 C 2.609375 0 3.109375 -0.03125 3.328125 -0.03125 C 3.546875 -0.03125 3.78125 -0.015625 4 0 L 4 -0.25 C 3.53125 -0.25 3.484375 -0.296875 3.3125 -0.46875 Z M 2.359375 -1.5625 "
           id="path3186" />
      </symbol>
    </g>
    <g
       id="g301">
      <symbol
         overflow="visible"
         id="symbol3180">
        <path
           style="stroke:none;"
           d=""
           id="path3269" />
      </symbol>
      <symbol
         overflow="visible"
         id="symbol1114">
        <path
           style="stroke:none;"
           d="M 4.671875 -3.703125 C 4.671875 -4.25 4.40625 -4.40625 4.234375 -4.40625 C 3.984375 -4.40625 3.734375 -4.140625 3.734375 -3.921875 C 3.734375 -3.796875 3.78125 -3.734375 3.890625 -3.625 C 4.109375 -3.421875 4.234375 -3.171875 4.234375 -2.8125 C 4.234375 -2.390625 3.625 -0.109375 2.46875 -0.109375 C 1.953125 -0.109375 1.71875 -0.453125 1.71875 -0.984375 C 1.71875 -1.53125 2 -2.265625 2.296875 -3.09375 C 2.375 -3.265625 2.421875 -3.40625 2.421875 -3.59375 C 2.421875 -4.03125 2.109375 -4.40625 1.609375 -4.40625 C 0.671875 -4.40625 0.296875 -2.953125 0.296875 -2.875 C 0.296875 -2.765625 0.390625 -2.765625 0.40625 -2.765625 C 0.515625 -2.765625 0.515625 -2.796875 0.5625 -2.953125 C 0.859375 -3.953125 1.28125 -4.1875 1.578125 -4.1875 C 1.65625 -4.1875 1.828125 -4.1875 1.828125 -3.875 C 1.828125 -3.625 1.71875 -3.34375 1.65625 -3.171875 C 1.21875 -2.015625 1.09375 -1.5625 1.09375 -1.125 C 1.09375 -0.046875 1.96875 0.109375 2.421875 0.109375 C 4.09375 0.109375 4.671875 -3.1875 4.671875 -3.703125 Z M 4.671875 -3.703125 "
           id="path6041" />
      </symbol>
      <symbol
         overflow="visible"
         id="symbol6167">
        <path
           style="stroke:none;"
           d=""
           id="path8898" />
      </symbol>
      <symbol
         overflow="visible"
         id="symbol449">
        <path
           style="stroke:none;"
           d="M 3.59375 -2.21875 C 3.59375 -2.984375 3.5 -3.546875 3.1875 -4.03125 C 2.96875 -4.34375 2.53125 -4.625 1.984375 -4.625 C 0.359375 -4.625 0.359375 -2.71875 0.359375 -2.21875 C 0.359375 -1.71875 0.359375 0.140625 1.984375 0.140625 C 3.59375 0.140625 3.59375 -1.71875 3.59375 -2.21875 Z M 1.984375 -0.0625 C 1.65625 -0.0625 1.234375 -0.25 1.09375 -0.8125 C 1 -1.21875 1 -1.796875 1 -2.3125 C 1 -2.828125 1 -3.359375 1.09375 -3.734375 C 1.25 -4.28125 1.6875 -4.4375 1.984375 -4.4375 C 2.359375 -4.4375 2.71875 -4.203125 2.84375 -3.796875 C 2.953125 -3.421875 2.96875 -2.921875 2.96875 -2.3125 C 2.96875 -1.796875 2.96875 -1.28125 2.875 -0.84375 C 2.734375 -0.203125 2.265625 -0.0625 1.984375 -0.0625 Z M 1.984375 -0.0625 "
           id="path4316" />
      </symbol>
    </g>
    <g
       id="g4656">
      <symbol
         overflow="visible"
         id="symbol5447">
        <path
           style="stroke:none;"
           d=""
           id="path1389" />
      </symbol>
      <symbol
         overflow="visible"
         id="symbol2285">
        <path
           style="stroke:none;"
           d="M 4.671875 -3.703125 C 4.671875 -4.25 4.40625 -4.40625 4.234375 -4.40625 C 3.984375 -4.40625 3.734375 -4.140625 3.734375 -3.921875 C 3.734375 -3.796875 3.78125 -3.734375 3.890625 -3.625 C 4.109375 -3.421875 4.234375 -3.171875 4.234375 -2.8125 C 4.234375 -2.390625 3.625 -0.109375 2.46875 -0.109375 C 1.953125 -0.109375 1.71875 -0.453125 1.71875 -0.984375 C 1.71875 -1.53125 2 -2.265625 2.296875 -3.09375 C 2.375 -3.265625 2.421875 -3.40625 2.421875 -3.59375 C 2.421875 -4.03125 2.109375 -4.40625 1.609375 -4.40625 C 0.671875 -4.40625 0.296875 -2.953125 0.296875 -2.875 C 0.296875 -2.765625 0.390625 -2.765625 0.40625 -2.765625 C 0.515625 -2.765625 0.515625 -2.796875 0.5625 -2.953125 C 0.859375 -3.953125 1.28125 -4.1875 1.578125 -4.1875 C 1.65625 -4.1875 1.828125 -4.1875 1.828125 -3.875 C 1.828125 -3.625 1.71875 -3.34375 1.65625 -3.171875 C 1.21875 -2.015625 1.09375 -1.5625 1.09375 -1.125 C 1.09375 -0.046875 1.96875 0.109375 2.421875 0.109375 C 4.09375 0.109375 4.671875 -3.1875 4.671875 -3.703125 Z M 4.671875 -3.703125 "
           id="path9796" />
      </symbol>
    </g>
  </defs>
  <sodipodi:namedview
     id="base"
     pagecolor="#ffffff"
     bordercolor="#666666"
     borderopacity="1.0"
     inkscape:pageopacity="0.0"
     inkscape:pageshadow="2"
     inkscape:zoom="0.98994949"
     inkscape:cx="348.33208"
     inkscape:cy="301.18845"
     inkscape:document-units="mm"
     inkscape:current-layer="layer1"
     inkscape:document-rotation="0"
     showgrid="false"
     inkscape:window-width="956"
     inkscape:window-height="1050"
     inkscape:window-x="0"
     inkscape:window-y="0"
     inkscape:window-maximized="0" />
  <metadata
     id="metadata5">
    <rdf:RDF>
      <cc:Work
         rdf:about="">
        <dc:format>image/svg+xml</dc:format>
        <dc:type
           rdf:resource="http://purl.org/dc/dcmitype/StillImage" />
        <dc:title></dc:title>
      </cc:Work>
    </rdf:RDF>
  </metadata>
  <g
     inkscape:label="Layer 1"
     inkscape:groupmode="layer"
     id="layer1">
    <path
       style="fill:none;stroke:#000000;stroke-width:0.264583px;stroke-linecap:butt;stroke-linejoin:miter;stroke-opacity:1"
       d="M 41.904523,117.13477 H 161.05908"
       id="path10" />
    <circle
       style="fill:none;stroke-width:0.884;stroke:#000000;stroke-opacity:1;stroke-miterlimit:4;stroke-dasharray:none"
       id="path12"
       cx="120.74303"
       cy="117.18237"
       r="31.952702" />
    <path
       style="fill:none;stroke:#000000;stroke-width:0.220673px;stroke-linecap:butt;stroke-linejoin:miter;stroke-opacity:1;marker-start:url(#Arrow1Lstart);marker-end:url(#Arrow1Lend)"
       d="M 120.61441,117.38612 130.9226,87.116426"
       id="path837" />
    <path
       style="fill:none;stroke:#000000;stroke-width:0.157522;stroke-linecap:butt;stroke-linejoin:miter;stroke-miterlimit:4;stroke-dasharray:none;stroke-opacity:1;marker-start:url(#marker1221);marker-end:url(#marker1181)"
       d="M 52.381512,116.74958 V 77.146648"
       id="path1177" />
    <g
       inkscape:label=""
       transform="translate(24.418021,17.996414)"
       id="g1351">
      <g
         id="g5000">
        <g
           style="fill:#000000;fill-opacity:1"
           id="g2263">
          <use
             xlink:href="#symbol4546"
             x="91.925003"
             y="81.962997"
             id="use2959"
             width="100%"
             height="100%" />
        </g>
      </g>
    </g>
    <g
       id="g2221">
      <path
         style="fill:none;stroke:#000000;stroke-width:0.264583px;stroke-linecap:butt;stroke-linejoin:miter;stroke-opacity:1;marker-end:url(#marker2164)"
         d="m 36.375453,76.682731 h 33.451802 c 0,0 70.755635,-1.493079 100.034605,34.122139"
         id="path2136"
         sodipodi:nodetypes="ccc" />
    </g>
    <path
       style="fill:none;stroke:#000000;stroke-width:0.264583px;stroke-linecap:butt;stroke-linejoin:miter;stroke-opacity:1;marker-end:url(#marker2263)"
       d="M 36.763099,71.224898 H 53.13573"
       id="path2259" />
    <path
       style="fill:none;stroke:#000000;stroke-width:0.403626px;stroke-linecap:butt;stroke-linejoin:miter;stroke-opacity:1;marker-end:url(#marker2263-9)"
       d="m 118.82388,78.107183 29.57635,8.814537"
       id="path2259-2" />
    <g
       inkscape:label=""
       transform="translate(-36.935456,16.980801)"
       id="g2539">
      <g
         id="g8826">
        <g
           style="fill:#000000;fill-opacity:1"
           id="g480">
          <use
             xlink:href="#symbol1679"
             x="91.925003"
             y="81.962997"
             id="use2784"
             width="100%"
             height="100%" />
        </g>
        <g
           style="fill:#000000;fill-opacity:1"
           id="g2161">
          <use
             xlink:href="#symbol2852"
             x="96.595001"
             y="83.457001"
             id="use6768"
             width="100%"
             height="100%" />
          <use
             xlink:href="#symbol1652"
             x="103.13991"
             y="83.457001"
             id="use8306"
             width="100%"
             height="100%" />
          <use
             xlink:href="#symbol4806"
             x="107.11149"
             y="83.457001"
             id="use5155"
             width="100%"
             height="100%" />
        </g>
      </g>
    </g>
    <g
       inkscape:label=""
       transform="translate(-51.940983,-16.157341)"
       id="g2652">
      <g
         id="g8933">
        <g
           style="fill:#000000;fill-opacity:1"
           id="g336">
          <use
             xlink:href="#symbol1114"
             x="91.925003"
             y="81.962997"
             id="use983"
             width="100%"
             height="100%" />
        </g>
        <g
           style="fill:#000000;fill-opacity:1"
           id="g4575">
          <use
             xlink:href="#symbol449"
             x="96.753998"
             y="83.457001"
             id="use8473"
             width="100%"
             height="100%" />
        </g>
      </g>
    </g>
    <g
       inkscape:label=""
       transform="translate(38.459313,-3.8606268)"
       id="g2768">
      <g
         id="g5832">
        <g
           style="fill:#000000;fill-opacity:1"
           id="g1057">
          <use
             xlink:href="#symbol2285"
             x="91.925003"
             y="81.962997"
             id="use6784"
             width="100%"
             height="100%" />
        </g>
      </g>
    </g>
  </g>
</svg>
