<?xml version="1.0" encoding="UTF-8" standalone="no"?>
<svg
   xmlns:dc="http://purl.org/dc/elements/1.1/"
   xmlns:cc="http://creativecommons.org/ns#"
   xmlns:rdf="http://www.w3.org/1999/02/22-rdf-syntax-ns#"
   xmlns:svg="http://www.w3.org/2000/svg"
   xmlns="http://www.w3.org/2000/svg"
   xmlns:xlink="http://www.w3.org/1999/xlink"
   xmlns:sodipodi="http://sodipodi.sourceforge.net/DTD/sodipodi-0.dtd"
   xmlns:inkscape="http://www.inkscape.org/namespaces/inkscape"
   inkscape:version="1.0.1 (3bc2e813f5, 2020-09-07)"
   sodipodi:docname="figure_4.svg"
   id="svg4546"
   version="1.1"
   viewBox="0 0 210 297"
   height="297mm"
   width="210mm">
  <defs
     id="defs4540">
    <marker
       style="overflow:visible;"
       id="marker1098"
       refX="0.0"
       refY="0.0"
       orient="auto"
       inkscape:stockid="Arrow1Lend"
       inkscape:isstock="true">
      <path
         transform="scale(0.8) rotate(180) translate(12.5,0)"
         style="fill-rule:evenodd;stroke:#000000;stroke-width:1pt;stroke-opacity:1;fill:#000000;fill-opacity:1"
         d="M 0.0,0.0 L 5.0,-5.0 L -12.5,0.0 L 5.0,5.0 L 0.0,0.0 z "
         id="path1096" />
    </marker>
    <marker
       style="overflow:visible;"
       id="Arrow1Lend"
       refX="0.0"
       refY="0.0"
       orient="auto"
       inkscape:stockid="Arrow1Lend"
       inkscape:isstock="true"
       inkscape:collect="always">
      <path
         transform="scale(0.8) rotate(180) translate(12.5,0)"
         style="fill-rule:evenodd;stroke:#000000;stroke-width:1pt;stroke-opacity:1;fill:#000000;fill-opacity:1"
         d="M 0.0,0.0 L 5.0,-5.0 L -12.5,0.0 L 5.0,5.0 L 0.0,0.0 z "
         id="path5911" />
    </marker>
    <g
       id="g1584">
      <symbol
         overflow="visible"
         id="symbol3722">
        <path
           style="stroke:none;"
           d=""
           id="path3926" />
      </symbol>
      <symbol
         overflow="visible"
         id="symbol8189">
        <path
           style="stroke:none;"
           d="M 0.15625 -0.984375 C 0.140625 -0.953125 0.109375 -0.921875 0.109375 -0.890625 C 0.109375 -0.84375 0.171875 -0.75 0.234375 -0.75 C 0.28125 -0.75 0.3125 -0.78125 0.59375 -1.0625 C 0.671875 -1.140625 0.875 -1.328125 0.953125 -1.40625 C 1.046875 -0.625 1.328125 0.125 2.0625 0.125 C 2.46875 0.125 2.8125 -0.109375 3.015625 -0.265625 C 3.15625 -0.359375 3.625 -0.75 3.625 -0.84375 C 3.625 -0.875 3.59375 -0.96875 3.515625 -0.96875 C 3.484375 -0.96875 3.46875 -0.953125 3.375 -0.875 C 2.734375 -0.25 2.375 -0.09375 2.078125 -0.09375 C 1.640625 -0.09375 1.46875 -0.625 1.46875 -1.390625 C 1.46875 -1.453125 1.5 -1.90625 1.53125 -1.96875 C 1.546875 -2 1.546875 -2.015625 1.75 -2.21875 C 2.546875 -3.015625 3.96875 -4.703125 3.96875 -6.25 C 3.96875 -6.421875 3.96875 -7.03125 3.375 -7.03125 C 2.546875 -7.03125 1.8125 -5.390625 1.71875 -5.15625 C 1.234375 -4.0625 0.921875 -2.90625 0.921875 -1.71875 Z M 1.578125 -2.375 C 1.59375 -2.5 2.03125 -4.703125 2.59375 -5.875 C 2.859375 -6.40625 3.078125 -6.8125 3.390625 -6.8125 C 3.734375 -6.8125 3.734375 -6.453125 3.734375 -6.296875 C 3.734375 -4.625 2.046875 -2.875 1.578125 -2.375 Z M 1.578125 -2.375 "
           id="path5546" />
      </symbol>
    </g>
    <g
       id="g5">
      <symbol
         overflow="visible"
         id="symbol3994">
        <path
           style="stroke:none;"
           d=""
           id="path4425" />
      </symbol>
      <symbol
         overflow="visible"
         id="symbol8985">
        <path
           style="stroke:none;"
           d="M 4.53125 -4.984375 C 4.53125 -5.640625 4.359375 -7.03125 3.34375 -7.03125 C 1.953125 -7.03125 0.421875 -4.21875 0.421875 -1.9375 C 0.421875 -1 0.703125 0.109375 1.609375 0.109375 C 3.015625 0.109375 4.53125 -2.75 4.53125 -4.984375 Z M 1.46875 -3.625 C 1.640625 -4.25 1.84375 -5.046875 2.25 -5.765625 C 2.515625 -6.25 2.875 -6.8125 3.328125 -6.8125 C 3.8125 -6.8125 3.875 -6.171875 3.875 -5.609375 C 3.875 -5.109375 3.796875 -4.609375 3.5625 -3.625 Z M 3.46875 -3.296875 C 3.359375 -2.84375 3.15625 -2 2.765625 -1.28125 C 2.421875 -0.59375 2.046875 -0.109375 1.609375 -0.109375 C 1.28125 -0.109375 1.078125 -0.40625 1.078125 -1.328125 C 1.078125 -1.75 1.140625 -2.328125 1.390625 -3.296875 Z M 3.46875 -3.296875 "
           id="path2018" />
      </symbol>
      <symbol
         overflow="visible"
         id="symbol1980">
        <path
           style="stroke:none;"
           d=""
           id="path6488" />
      </symbol>
      <symbol
         overflow="visible"
         id="symbol5652">
        <path
           style="stroke:none;"
           d="M 2.328125 -4.4375 C 2.328125 -4.625 2.328125 -4.625 2.125 -4.625 C 1.671875 -4.1875 1.046875 -4.1875 0.765625 -4.1875 L 0.765625 -3.9375 C 0.921875 -3.9375 1.390625 -3.9375 1.765625 -4.125 L 1.765625 -0.578125 C 1.765625 -0.34375 1.765625 -0.25 1.078125 -0.25 L 0.8125 -0.25 L 0.8125 0 C 0.9375 0 1.796875 -0.03125 2.046875 -0.03125 C 2.265625 -0.03125 3.140625 0 3.296875 0 L 3.296875 -0.25 L 3.03125 -0.25 C 2.328125 -0.25 2.328125 -0.34375 2.328125 -0.578125 Z M 2.328125 -4.4375 "
           id="path6366" />
      </symbol>
    </g>
    <g
       id="g9035">
      <symbol
         overflow="visible"
         id="symbol3219">
        <path
           style="stroke:none;"
           d=""
           id="path1231" />
      </symbol>
      <symbol
         overflow="visible"
         id="symbol3910">
        <path
           style="stroke:none;"
           d="M 4.53125 -4.984375 C 4.53125 -5.640625 4.359375 -7.03125 3.34375 -7.03125 C 1.953125 -7.03125 0.421875 -4.21875 0.421875 -1.9375 C 0.421875 -1 0.703125 0.109375 1.609375 0.109375 C 3.015625 0.109375 4.53125 -2.75 4.53125 -4.984375 Z M 1.46875 -3.625 C 1.640625 -4.25 1.84375 -5.046875 2.25 -5.765625 C 2.515625 -6.25 2.875 -6.8125 3.328125 -6.8125 C 3.8125 -6.8125 3.875 -6.171875 3.875 -5.609375 C 3.875 -5.109375 3.796875 -4.609375 3.5625 -3.625 Z M 3.46875 -3.296875 C 3.359375 -2.84375 3.15625 -2 2.765625 -1.28125 C 2.421875 -0.59375 2.046875 -0.109375 1.609375 -0.109375 C 1.28125 -0.109375 1.078125 -0.40625 1.078125 -1.328125 C 1.078125 -1.75 1.140625 -2.328125 1.390625 -3.296875 Z M 3.46875 -3.296875 "
           id="path6512" />
      </symbol>
      <symbol
         overflow="visible"
         id="symbol2591">
        <path
           style="stroke:none;"
           d=""
           id="path7575" />
      </symbol>
      <symbol
         overflow="visible"
         id="symbol6636">
        <path
           style="stroke:none;"
           d="M 3.515625 -1.265625 L 3.28125 -1.265625 C 3.265625 -1.109375 3.1875 -0.703125 3.09375 -0.640625 C 3.046875 -0.59375 2.515625 -0.59375 2.40625 -0.59375 L 1.125 -0.59375 C 1.859375 -1.234375 2.109375 -1.4375 2.515625 -1.765625 C 3.03125 -2.171875 3.515625 -2.609375 3.515625 -3.265625 C 3.515625 -4.109375 2.78125 -4.625 1.890625 -4.625 C 1.03125 -4.625 0.4375 -4.015625 0.4375 -3.375 C 0.4375 -3.03125 0.734375 -2.984375 0.8125 -2.984375 C 0.96875 -2.984375 1.171875 -3.109375 1.171875 -3.359375 C 1.171875 -3.484375 1.125 -3.734375 0.765625 -3.734375 C 0.984375 -4.21875 1.453125 -4.375 1.78125 -4.375 C 2.484375 -4.375 2.84375 -3.828125 2.84375 -3.265625 C 2.84375 -2.65625 2.40625 -2.1875 2.1875 -1.9375 L 0.515625 -0.265625 C 0.4375 -0.203125 0.4375 -0.1875 0.4375 0 L 3.3125 0 Z M 3.515625 -1.265625 "
           id="path7182" />
      </symbol>
    </g>
    <g
       id="g327">
      <symbol
         overflow="visible"
         id="symbol6859">
        <path
           style="stroke:none;"
           d=""
           id="path3748" />
      </symbol>
      <symbol
         overflow="visible"
         id="symbol6851">
        <path
           style="stroke:none;"
           d="M 0.875 -0.59375 C 0.84375 -0.4375 0.78125 -0.203125 0.78125 -0.15625 C 0.78125 0.015625 0.921875 0.109375 1.078125 0.109375 C 1.203125 0.109375 1.375 0.03125 1.453125 -0.171875 C 1.453125 -0.1875 1.578125 -0.65625 1.640625 -0.90625 L 1.859375 -1.796875 C 1.90625 -2.03125 1.96875 -2.25 2.03125 -2.46875 C 2.0625 -2.640625 2.140625 -2.9375 2.15625 -2.96875 C 2.296875 -3.28125 2.828125 -4.1875 3.78125 -4.1875 C 4.234375 -4.1875 4.3125 -3.8125 4.3125 -3.484375 C 4.3125 -3.234375 4.25 -2.953125 4.171875 -2.65625 L 3.890625 -1.5 L 3.6875 -0.75 C 3.65625 -0.546875 3.5625 -0.203125 3.5625 -0.15625 C 3.5625 0.015625 3.703125 0.109375 3.84375 0.109375 C 4.15625 0.109375 4.21875 -0.140625 4.296875 -0.453125 C 4.4375 -1.015625 4.8125 -2.46875 4.890625 -2.859375 C 4.921875 -2.984375 5.453125 -4.1875 6.546875 -4.1875 C 6.96875 -4.1875 7.078125 -3.84375 7.078125 -3.484375 C 7.078125 -2.921875 6.65625 -1.78125 6.453125 -1.25 C 6.375 -1.015625 6.328125 -0.90625 6.328125 -0.703125 C 6.328125 -0.234375 6.671875 0.109375 7.140625 0.109375 C 8.078125 0.109375 8.453125 -1.34375 8.453125 -1.421875 C 8.453125 -1.53125 8.359375 -1.53125 8.328125 -1.53125 C 8.234375 -1.53125 8.234375 -1.5 8.1875 -1.34375 C 8.03125 -0.8125 7.71875 -0.109375 7.171875 -0.109375 C 7 -0.109375 6.921875 -0.203125 6.921875 -0.4375 C 6.921875 -0.6875 7.015625 -0.921875 7.109375 -1.140625 C 7.296875 -1.671875 7.71875 -2.765625 7.71875 -3.34375 C 7.71875 -3.984375 7.3125 -4.40625 6.5625 -4.40625 C 5.828125 -4.40625 5.3125 -3.96875 4.9375 -3.4375 C 4.9375 -3.5625 4.90625 -3.90625 4.625 -4.140625 C 4.375 -4.359375 4.0625 -4.40625 3.8125 -4.40625 C 2.90625 -4.40625 2.421875 -3.765625 2.25 -3.53125 C 2.203125 -4.109375 1.78125 -4.40625 1.328125 -4.40625 C 0.875 -4.40625 0.6875 -4.015625 0.59375 -3.84375 C 0.421875 -3.484375 0.296875 -2.90625 0.296875 -2.875 C 0.296875 -2.765625 0.390625 -2.765625 0.40625 -2.765625 C 0.515625 -2.765625 0.515625 -2.78125 0.578125 -3 C 0.75 -3.703125 0.953125 -4.1875 1.3125 -4.1875 C 1.46875 -4.1875 1.609375 -4.109375 1.609375 -3.734375 C 1.609375 -3.515625 1.578125 -3.40625 1.453125 -2.890625 Z M 0.875 -0.59375 "
           id="path498" />
      </symbol>
    </g>
    <g
       id="g4176">
      <symbol
         overflow="visible"
         id="symbol9962">
        <path
           style="stroke:none;"
           d=""
           id="path7014" />
      </symbol>
      <symbol
         overflow="visible"
         id="symbol7755">
        <path
           style="stroke:none;"
           d="M 4.6875 -3.765625 C 4.703125 -3.8125 4.71875 -3.875 4.71875 -3.9375 C 4.71875 -4.109375 4.609375 -4.203125 4.4375 -4.203125 C 4.34375 -4.203125 4.0625 -4.140625 4.03125 -3.78125 C 3.84375 -4.140625 3.5 -4.40625 3.09375 -4.40625 C 1.96875 -4.40625 0.734375 -3.015625 0.734375 -1.578125 C 0.734375 -0.59375 1.328125 0 2.046875 0 C 2.640625 0 3.109375 -0.46875 3.203125 -0.578125 L 3.21875 -0.5625 C 3.015625 0.3125 2.890625 0.734375 2.890625 0.75 C 2.84375 0.84375 2.515625 1.828125 1.453125 1.828125 C 1.265625 1.828125 0.9375 1.8125 0.65625 1.71875 C 0.953125 1.640625 1.0625 1.375 1.0625 1.203125 C 1.0625 1.046875 0.953125 0.859375 0.6875 0.859375 C 0.46875 0.859375 0.15625 1.03125 0.15625 1.4375 C 0.15625 1.84375 0.515625 2.046875 1.46875 2.046875 C 2.71875 2.046875 3.4375 1.265625 3.59375 0.671875 Z M 3.40625 -1.28125 C 3.34375 -1.015625 3.109375 -0.765625 2.890625 -0.578125 C 2.6875 -0.40625 2.375 -0.21875 2.078125 -0.21875 C 1.578125 -0.21875 1.4375 -0.734375 1.4375 -1.140625 C 1.4375 -1.609375 1.71875 -2.796875 2 -3.296875 C 2.265625 -3.78125 2.6875 -4.1875 3.109375 -4.1875 C 3.765625 -4.1875 3.90625 -3.375 3.90625 -3.328125 C 3.90625 -3.28125 3.890625 -3.21875 3.875 -3.1875 Z M 3.40625 -1.28125 "
           id="path5967" />
      </symbol>
    </g>
    <marker
       style="overflow:visible"
       id="Arrow1Lend-3"
       refX="0"
       refY="0"
       orient="auto"
       inkscape:stockid="Arrow1Lend"
       inkscape:isstock="true">
      <path
         transform="matrix(-0.8,0,0,-0.8,-10,0)"
         style="fill:#000000;fill-opacity:1;fill-rule:evenodd;stroke:#000000;stroke-width:1pt;stroke-opacity:1"
         d="M 0,0 5,-5 -12.5,0 5,5 Z"
         id="path5911-6" />
    </marker>
    <marker
       style="overflow:visible"
       id="Arrow1Lend-5"
       refX="0"
       refY="0"
       orient="auto"
       inkscape:stockid="Arrow1Lend"
       inkscape:isstock="true">
      <path
         transform="matrix(-0.8,0,0,-0.8,-10,0)"
         style="fill:#000000;fill-opacity:1;fill-rule:evenodd;stroke:#000000;stroke-width:1pt;stroke-opacity:1"
         d="M 0,0 5,-5 -12.5,0 5,5 Z"
         id="path5911-3" />
    </marker>
    <g
       id="g214">
      <symbol
         overflow="visible"
         id="symbol7558">
        <path
           style="stroke:none;"
           d=""
           id="path1748" />
      </symbol>
      <symbol
         overflow="visible"
         id="symbol8766">
        <path
           style="stroke:none;"
           d="M 2.5 -6.921875 L 1.15625 -5.5625 L 1.328125 -5.390625 L 2.5 -6.40625 L 3.640625 -5.390625 L 3.8125 -5.5625 Z M 2.5 -6.921875 "
           id="path9921" />
      </symbol>
      <symbol
         overflow="visible"
         id="symbol5676">
        <path
           style="stroke:none;"
           d=""
           id="path3542" />
      </symbol>
      <symbol
         overflow="visible"
         id="symbol3636">
        <path
           style="stroke:none;"
           d="M 1.859375 -2.296875 C 2.15625 -2.296875 2.890625 -2.328125 3.390625 -2.53125 C 4.09375 -2.828125 4.140625 -3.421875 4.140625 -3.5625 C 4.140625 -4 3.765625 -4.40625 3.078125 -4.40625 C 1.96875 -4.40625 0.453125 -3.4375 0.453125 -1.6875 C 0.453125 -0.671875 1.046875 0.109375 2.03125 0.109375 C 3.453125 0.109375 4.28125 -0.953125 4.28125 -1.0625 C 4.28125 -1.125 4.234375 -1.203125 4.171875 -1.203125 C 4.109375 -1.203125 4.09375 -1.171875 4.03125 -1.09375 C 3.25 -0.109375 2.15625 -0.109375 2.046875 -0.109375 C 1.265625 -0.109375 1.171875 -0.953125 1.171875 -1.265625 C 1.171875 -1.390625 1.1875 -1.6875 1.328125 -2.296875 Z M 1.390625 -2.515625 C 1.78125 -4.03125 2.8125 -4.1875 3.078125 -4.1875 C 3.53125 -4.1875 3.8125 -3.890625 3.8125 -3.5625 C 3.8125 -2.515625 2.21875 -2.515625 1.796875 -2.515625 Z M 1.390625 -2.515625 "
           id="path9565" />
      </symbol>
      <symbol
         overflow="visible"
         id="symbol1671">
        <path
           style="stroke:none;"
           d=""
           id="path1244" />
      </symbol>
      <symbol
         overflow="visible"
         id="symbol8391">
        <path
           style="stroke:none;"
           d="M 3.875 -2.625 C 3.90625 -2.71875 3.90625 -2.734375 3.90625 -2.78125 C 3.90625 -2.921875 3.796875 -3 3.671875 -3 C 3.59375 -3 3.46875 -2.96875 3.390625 -2.84375 C 3.359375 -2.796875 3.3125 -2.578125 3.28125 -2.4375 L 3.125 -1.859375 C 3.09375 -1.6875 2.875 -0.8125 2.84375 -0.734375 C 2.84375 -0.734375 2.53125 -0.125 2 -0.125 C 1.515625 -0.125 1.515625 -0.578125 1.515625 -0.703125 C 1.515625 -1.078125 1.671875 -1.515625 1.890625 -2.0625 C 1.96875 -2.28125 2 -2.359375 2 -2.484375 C 2 -2.8125 1.71875 -3.078125 1.34375 -3.078125 C 0.640625 -3.078125 0.328125 -2.125 0.328125 -2 C 0.328125 -1.921875 0.421875 -1.921875 0.453125 -1.921875 C 0.546875 -1.921875 0.546875 -1.953125 0.578125 -2.03125 C 0.75 -2.609375 1.046875 -2.875 1.328125 -2.875 C 1.4375 -2.875 1.5 -2.796875 1.5 -2.640625 C 1.5 -2.46875 1.4375 -2.328125 1.40625 -2.234375 C 1.0625 -1.375 1 -1.125 1 -0.8125 C 1 -0.703125 1 -0.375 1.265625 -0.140625 C 1.484375 0.03125 1.78125 0.0625 1.96875 0.0625 C 2.25 0.0625 2.5 -0.03125 2.71875 -0.25 C 2.640625 0.140625 2.5625 0.4375 2.265625 0.78125 C 2.078125 1 1.796875 1.21875 1.421875 1.21875 C 1.375 1.21875 1.046875 1.21875 0.90625 1 C 1.28125 0.953125 1.28125 0.625 1.28125 0.609375 C 1.28125 0.390625 1.078125 0.34375 1.015625 0.34375 C 0.84375 0.34375 0.609375 0.484375 0.609375 0.8125 C 0.609375 1.15625 0.9375 1.421875 1.4375 1.421875 C 2.140625 1.421875 3 0.875 3.21875 0 Z M 3.875 -2.625 "
           id="path7548" />
      </symbol>
    </g>
    <g
       id="g4651">
      <symbol
         overflow="visible"
         id="symbol8347">
        <path
           style="stroke:none;"
           d=""
           id="path1658" />
      </symbol>
      <symbol
         overflow="visible"
         id="symbol396">
        <path
           style="stroke:none;"
           d="M 2.5 -6.921875 L 1.15625 -5.5625 L 1.328125 -5.390625 L 2.5 -6.40625 L 3.640625 -5.390625 L 3.8125 -5.5625 Z M 2.5 -6.921875 "
           id="path7841" />
      </symbol>
      <symbol
         overflow="visible"
         id="symbol5626">
        <path
           style="stroke:none;"
           d=""
           id="path8268" />
      </symbol>
      <symbol
         overflow="visible"
         id="symbol9673">
        <path
           style="stroke:none;"
           d="M 1.859375 -2.296875 C 2.15625 -2.296875 2.890625 -2.328125 3.390625 -2.53125 C 4.09375 -2.828125 4.140625 -3.421875 4.140625 -3.5625 C 4.140625 -4 3.765625 -4.40625 3.078125 -4.40625 C 1.96875 -4.40625 0.453125 -3.4375 0.453125 -1.6875 C 0.453125 -0.671875 1.046875 0.109375 2.03125 0.109375 C 3.453125 0.109375 4.28125 -0.953125 4.28125 -1.0625 C 4.28125 -1.125 4.234375 -1.203125 4.171875 -1.203125 C 4.109375 -1.203125 4.09375 -1.171875 4.03125 -1.09375 C 3.25 -0.109375 2.15625 -0.109375 2.046875 -0.109375 C 1.265625 -0.109375 1.171875 -0.953125 1.171875 -1.265625 C 1.171875 -1.390625 1.1875 -1.6875 1.328125 -2.296875 Z M 1.390625 -2.515625 C 1.78125 -4.03125 2.8125 -4.1875 3.078125 -4.1875 C 3.53125 -4.1875 3.8125 -3.890625 3.8125 -3.5625 C 3.8125 -2.515625 2.21875 -2.515625 1.796875 -2.515625 Z M 1.390625 -2.515625 "
           id="path4371" />
      </symbol>
      <symbol
         overflow="visible"
         id="symbol5782">
        <path
           style="stroke:none;"
           d=""
           id="path781" />
      </symbol>
      <symbol
         overflow="visible"
         id="symbol8717">
        <path
           style="stroke:none;"
           d="M 1.734375 -0.734375 C 1.671875 -0.5 1.4375 -0.125 1.078125 -0.125 C 1.0625 -0.125 0.84375 -0.125 0.703125 -0.21875 C 0.984375 -0.3125 1.015625 -0.5625 1.015625 -0.609375 C 1.015625 -0.765625 0.890625 -0.859375 0.734375 -0.859375 C 0.53125 -0.859375 0.328125 -0.703125 0.328125 -0.4375 C 0.328125 -0.09375 0.71875 0.0625 1.0625 0.0625 C 1.390625 0.0625 1.671875 -0.125 1.84375 -0.421875 C 2.015625 -0.0625 2.390625 0.0625 2.671875 0.0625 C 3.484375 0.0625 3.90625 -0.796875 3.90625 -1 C 3.90625 -1.09375 3.8125 -1.09375 3.796875 -1.09375 C 3.6875 -1.09375 3.6875 -1.046875 3.65625 -0.96875 C 3.515625 -0.484375 3.09375 -0.125 2.703125 -0.125 C 2.421875 -0.125 2.28125 -0.3125 2.28125 -0.578125 C 2.28125 -0.765625 2.453125 -1.390625 2.640625 -2.171875 C 2.78125 -2.703125 3.09375 -2.875 3.328125 -2.875 C 3.34375 -2.875 3.546875 -2.875 3.703125 -2.78125 C 3.484375 -2.71875 3.390625 -2.515625 3.390625 -2.390625 C 3.390625 -2.25 3.515625 -2.140625 3.671875 -2.140625 C 3.828125 -2.140625 4.0625 -2.265625 4.0625 -2.5625 C 4.0625 -2.953125 3.609375 -3.078125 3.34375 -3.078125 C 2.984375 -3.078125 2.703125 -2.84375 2.5625 -2.578125 C 2.4375 -2.859375 2.109375 -3.078125 1.71875 -3.078125 C 0.9375 -3.078125 0.5 -2.21875 0.5 -2 C 0.5 -1.921875 0.59375 -1.921875 0.609375 -1.921875 C 0.703125 -1.921875 0.703125 -1.9375 0.75 -2.03125 C 0.921875 -2.578125 1.359375 -2.875 1.703125 -2.875 C 1.9375 -2.875 2.125 -2.75 2.125 -2.421875 C 2.125 -2.28125 2.03125 -1.9375 1.96875 -1.6875 Z M 1.734375 -0.734375 "
           id="path209" />
      </symbol>
    </g>
    <g
       id="g4110">
      <symbol
         overflow="visible"
         id="symbol5019">
        <path
           style="stroke:none;"
           d=""
           id="path4434" />
      </symbol>
      <symbol
         overflow="visible"
         id="symbol4121">
        <path
           style="stroke:none;"
           d="M 5.734375 -5.671875 C 5.734375 -6.421875 5.1875 -7.03125 4.375 -7.03125 C 3.796875 -7.03125 3.515625 -6.875 3.171875 -6.625 C 2.625 -6.21875 2.078125 -5.25 1.890625 -4.5 L 0.296875 1.828125 C 0.296875 1.875 0.34375 1.9375 0.421875 1.9375 C 0.5 1.9375 0.53125 1.90625 0.53125 1.890625 L 1.234375 -0.875 C 1.421875 -0.265625 1.859375 0.09375 2.59375 0.09375 C 3.3125 0.09375 4.0625 -0.25 4.515625 -0.6875 C 5 -1.140625 5.3125 -1.78125 5.3125 -2.515625 C 5.3125 -3.234375 4.9375 -3.765625 4.578125 -4 C 5.15625 -4.34375 5.734375 -4.953125 5.734375 -5.671875 Z M 3.9375 -4.015625 C 3.8125 -3.96875 3.703125 -3.953125 3.453125 -3.953125 C 3.3125 -3.953125 3.125 -3.9375 3.015625 -3.984375 C 3.046875 -4.09375 3.40625 -4.0625 3.515625 -4.0625 C 3.71875 -4.0625 3.8125 -4.0625 3.9375 -4.015625 Z M 5.171875 -5.90625 C 5.171875 -5.203125 4.796875 -4.484375 4.28125 -4.171875 C 4 -4.28125 3.8125 -4.296875 3.515625 -4.296875 C 3.296875 -4.296875 2.734375 -4.3125 2.734375 -3.984375 C 2.734375 -3.703125 3.25 -3.734375 3.421875 -3.734375 C 3.796875 -3.734375 3.953125 -3.734375 4.25 -3.859375 C 4.625 -3.5 4.671875 -3.1875 4.6875 -2.734375 C 4.703125 -2.15625 4.46875 -1.40625 4.1875 -1.015625 C 3.796875 -0.484375 3.125 -0.125 2.5625 -0.125 C 1.796875 -0.125 1.421875 -0.703125 1.421875 -1.40625 C 1.421875 -1.5 1.421875 -1.65625 1.46875 -1.84375 L 2.109375 -4.359375 C 2.328125 -5.21875 3.046875 -6.8125 4.25 -6.8125 C 4.828125 -6.8125 5.171875 -6.5 5.171875 -5.90625 Z M 5.171875 -5.90625 "
           id="path3639" />
      </symbol>
      <symbol
         overflow="visible"
         id="symbol5032">
        <path
           style="stroke:none;"
           d=""
           id="path8486" />
      </symbol>
      <symbol
         overflow="visible"
         id="symbol8513">
        <path
           style="stroke:none;"
           d="M 2.328125 -4.4375 C 2.328125 -4.625 2.328125 -4.625 2.125 -4.625 C 1.671875 -4.1875 1.046875 -4.1875 0.765625 -4.1875 L 0.765625 -3.9375 C 0.921875 -3.9375 1.390625 -3.9375 1.765625 -4.125 L 1.765625 -0.578125 C 1.765625 -0.34375 1.765625 -0.25 1.078125 -0.25 L 0.8125 -0.25 L 0.8125 0 C 0.9375 0 1.796875 -0.03125 2.046875 -0.03125 C 2.265625 -0.03125 3.140625 0 3.296875 0 L 3.296875 -0.25 L 3.03125 -0.25 C 2.328125 -0.25 2.328125 -0.34375 2.328125 -0.578125 Z M 2.328125 -4.4375 "
           id="path6099" />
      </symbol>
    </g>
    <g
       id="g7117">
      <symbol
         overflow="visible"
         id="symbol901">
        <path
           style="stroke:none;"
           d=""
           id="path4795" />
      </symbol>
      <symbol
         overflow="visible"
         id="symbol4438">
        <path
           style="stroke:none;"
           d="M 5.734375 -5.671875 C 5.734375 -6.421875 5.1875 -7.03125 4.375 -7.03125 C 3.796875 -7.03125 3.515625 -6.875 3.171875 -6.625 C 2.625 -6.21875 2.078125 -5.25 1.890625 -4.5 L 0.296875 1.828125 C 0.296875 1.875 0.34375 1.9375 0.421875 1.9375 C 0.5 1.9375 0.53125 1.90625 0.53125 1.890625 L 1.234375 -0.875 C 1.421875 -0.265625 1.859375 0.09375 2.59375 0.09375 C 3.3125 0.09375 4.0625 -0.25 4.515625 -0.6875 C 5 -1.140625 5.3125 -1.78125 5.3125 -2.515625 C 5.3125 -3.234375 4.9375 -3.765625 4.578125 -4 C 5.15625 -4.34375 5.734375 -4.953125 5.734375 -5.671875 Z M 3.9375 -4.015625 C 3.8125 -3.96875 3.703125 -3.953125 3.453125 -3.953125 C 3.3125 -3.953125 3.125 -3.9375 3.015625 -3.984375 C 3.046875 -4.09375 3.40625 -4.0625 3.515625 -4.0625 C 3.71875 -4.0625 3.8125 -4.0625 3.9375 -4.015625 Z M 5.171875 -5.90625 C 5.171875 -5.203125 4.796875 -4.484375 4.28125 -4.171875 C 4 -4.28125 3.8125 -4.296875 3.515625 -4.296875 C 3.296875 -4.296875 2.734375 -4.3125 2.734375 -3.984375 C 2.734375 -3.703125 3.25 -3.734375 3.421875 -3.734375 C 3.796875 -3.734375 3.953125 -3.734375 4.25 -3.859375 C 4.625 -3.5 4.671875 -3.1875 4.6875 -2.734375 C 4.703125 -2.15625 4.46875 -1.40625 4.1875 -1.015625 C 3.796875 -0.484375 3.125 -0.125 2.5625 -0.125 C 1.796875 -0.125 1.421875 -0.703125 1.421875 -1.40625 C 1.421875 -1.5 1.421875 -1.65625 1.46875 -1.84375 L 2.109375 -4.359375 C 2.328125 -5.21875 3.046875 -6.8125 4.25 -6.8125 C 4.828125 -6.8125 5.171875 -6.5 5.171875 -5.90625 Z M 5.171875 -5.90625 "
           id="path7545" />
      </symbol>
      <symbol
         overflow="visible"
         id="symbol9524">
        <path
           style="stroke:none;"
           d=""
           id="path8510" />
      </symbol>
      <symbol
         overflow="visible"
         id="symbol3662">
        <path
           style="stroke:none;"
           d="M 3.515625 -1.265625 L 3.28125 -1.265625 C 3.265625 -1.109375 3.1875 -0.703125 3.09375 -0.640625 C 3.046875 -0.59375 2.515625 -0.59375 2.40625 -0.59375 L 1.125 -0.59375 C 1.859375 -1.234375 2.109375 -1.4375 2.515625 -1.765625 C 3.03125 -2.171875 3.515625 -2.609375 3.515625 -3.265625 C 3.515625 -4.109375 2.78125 -4.625 1.890625 -4.625 C 1.03125 -4.625 0.4375 -4.015625 0.4375 -3.375 C 0.4375 -3.03125 0.734375 -2.984375 0.8125 -2.984375 C 0.96875 -2.984375 1.171875 -3.109375 1.171875 -3.359375 C 1.171875 -3.484375 1.125 -3.734375 0.765625 -3.734375 C 0.984375 -4.21875 1.453125 -4.375 1.78125 -4.375 C 2.484375 -4.375 2.84375 -3.828125 2.84375 -3.265625 C 2.84375 -2.65625 2.40625 -2.1875 2.1875 -1.9375 L 0.515625 -0.265625 C 0.4375 -0.203125 0.4375 -0.1875 0.4375 0 L 3.3125 0 Z M 3.515625 -1.265625 "
           id="path2879" />
      </symbol>
    </g>
    <g
       id="g967">
      <symbol
         overflow="visible"
         id="symbol1816">
        <path
           style="stroke:none;"
           d=""
           id="path4980" />
      </symbol>
      <symbol
         overflow="visible"
         id="symbol8794">
        <path
           style="stroke:none;"
           d="M 0.15625 -0.984375 C 0.140625 -0.953125 0.109375 -0.921875 0.109375 -0.890625 C 0.109375 -0.84375 0.171875 -0.75 0.234375 -0.75 C 0.28125 -0.75 0.3125 -0.78125 0.59375 -1.0625 C 0.671875 -1.140625 0.875 -1.328125 0.953125 -1.40625 C 1.046875 -0.625 1.328125 0.125 2.0625 0.125 C 2.46875 0.125 2.8125 -0.109375 3.015625 -0.265625 C 3.15625 -0.359375 3.625 -0.75 3.625 -0.84375 C 3.625 -0.875 3.59375 -0.96875 3.515625 -0.96875 C 3.484375 -0.96875 3.46875 -0.953125 3.375 -0.875 C 2.734375 -0.25 2.375 -0.09375 2.078125 -0.09375 C 1.640625 -0.09375 1.46875 -0.625 1.46875 -1.390625 C 1.46875 -1.453125 1.5 -1.90625 1.53125 -1.96875 C 1.546875 -2 1.546875 -2.015625 1.75 -2.21875 C 2.546875 -3.015625 3.96875 -4.703125 3.96875 -6.25 C 3.96875 -6.421875 3.96875 -7.03125 3.375 -7.03125 C 2.546875 -7.03125 1.8125 -5.390625 1.71875 -5.15625 C 1.234375 -4.0625 0.921875 -2.90625 0.921875 -1.71875 Z M 1.578125 -2.375 C 1.59375 -2.5 2.03125 -4.703125 2.59375 -5.875 C 2.859375 -6.40625 3.078125 -6.8125 3.390625 -6.8125 C 3.734375 -6.8125 3.734375 -6.453125 3.734375 -6.296875 C 3.734375 -4.625 2.046875 -2.875 1.578125 -2.375 Z M 1.578125 -2.375 "
           id="path6474" />
      </symbol>
      <symbol
         overflow="visible"
         id="symbol1610">
        <path
           style="stroke:none;"
           d=""
           id="path8790" />
      </symbol>
      <symbol
         overflow="visible"
         id="symbol7628">
        <path
           style="stroke:none;"
           d="M 2.328125 -4.4375 C 2.328125 -4.625 2.328125 -4.625 2.125 -4.625 C 1.671875 -4.1875 1.046875 -4.1875 0.765625 -4.1875 L 0.765625 -3.9375 C 0.921875 -3.9375 1.390625 -3.9375 1.765625 -4.125 L 1.765625 -0.578125 C 1.765625 -0.34375 1.765625 -0.25 1.078125 -0.25 L 0.8125 -0.25 L 0.8125 0 C 0.9375 0 1.796875 -0.03125 2.046875 -0.03125 C 2.265625 -0.03125 3.140625 0 3.296875 0 L 3.296875 -0.25 L 3.03125 -0.25 C 2.328125 -0.25 2.328125 -0.34375 2.328125 -0.578125 Z M 2.328125 -4.4375 "
           id="path9265" />
      </symbol>
    </g>
    <g
       id="g6463">
      <symbol
         overflow="visible"
         id="symbol6554">
        <path
           style="stroke:none;"
           d=""
           id="path4257" />
      </symbol>
      <symbol
         overflow="visible"
         id="symbol6456">
        <path
           style="stroke:none;"
           d="M 0.15625 -0.984375 C 0.140625 -0.953125 0.109375 -0.921875 0.109375 -0.890625 C 0.109375 -0.84375 0.171875 -0.75 0.234375 -0.75 C 0.28125 -0.75 0.3125 -0.78125 0.59375 -1.0625 C 0.671875 -1.140625 0.875 -1.328125 0.953125 -1.40625 C 1.046875 -0.625 1.328125 0.125 2.0625 0.125 C 2.46875 0.125 2.8125 -0.109375 3.015625 -0.265625 C 3.15625 -0.359375 3.625 -0.75 3.625 -0.84375 C 3.625 -0.875 3.59375 -0.96875 3.515625 -0.96875 C 3.484375 -0.96875 3.46875 -0.953125 3.375 -0.875 C 2.734375 -0.25 2.375 -0.09375 2.078125 -0.09375 C 1.640625 -0.09375 1.46875 -0.625 1.46875 -1.390625 C 1.46875 -1.453125 1.5 -1.90625 1.53125 -1.96875 C 1.546875 -2 1.546875 -2.015625 1.75 -2.21875 C 2.546875 -3.015625 3.96875 -4.703125 3.96875 -6.25 C 3.96875 -6.421875 3.96875 -7.03125 3.375 -7.03125 C 2.546875 -7.03125 1.8125 -5.390625 1.71875 -5.15625 C 1.234375 -4.0625 0.921875 -2.90625 0.921875 -1.71875 Z M 1.578125 -2.375 C 1.59375 -2.5 2.03125 -4.703125 2.59375 -5.875 C 2.859375 -6.40625 3.078125 -6.8125 3.390625 -6.8125 C 3.734375 -6.8125 3.734375 -6.453125 3.734375 -6.296875 C 3.734375 -4.625 2.046875 -2.875 1.578125 -2.375 Z M 1.578125 -2.375 "
           id="path3602" />
      </symbol>
      <symbol
         overflow="visible"
         id="symbol5099">
        <path
           style="stroke:none;"
           d=""
           id="path2813" />
      </symbol>
      <symbol
         overflow="visible"
         id="symbol1747">
        <path
           style="stroke:none;"
           d="M 3.515625 -1.265625 L 3.28125 -1.265625 C 3.265625 -1.109375 3.1875 -0.703125 3.09375 -0.640625 C 3.046875 -0.59375 2.515625 -0.59375 2.40625 -0.59375 L 1.125 -0.59375 C 1.859375 -1.234375 2.109375 -1.4375 2.515625 -1.765625 C 3.03125 -2.171875 3.515625 -2.609375 3.515625 -3.265625 C 3.515625 -4.109375 2.78125 -4.625 1.890625 -4.625 C 1.03125 -4.625 0.4375 -4.015625 0.4375 -3.375 C 0.4375 -3.03125 0.734375 -2.984375 0.8125 -2.984375 C 0.96875 -2.984375 1.171875 -3.109375 1.171875 -3.359375 C 1.171875 -3.484375 1.125 -3.734375 0.765625 -3.734375 C 0.984375 -4.21875 1.453125 -4.375 1.78125 -4.375 C 2.484375 -4.375 2.84375 -3.828125 2.84375 -3.265625 C 2.84375 -2.65625 2.40625 -2.1875 2.1875 -1.9375 L 0.515625 -0.265625 C 0.4375 -0.203125 0.4375 -0.1875 0.4375 0 L 3.3125 0 Z M 3.515625 -1.265625 "
           id="path7095" />
      </symbol>
    </g>
    <g
       id="g661">
      <symbol
         overflow="visible"
         id="symbol9703">
        <path
           style="stroke:none;"
           d=""
           id="path2771" />
      </symbol>
      <symbol
         overflow="visible"
         id="symbol4758">
        <path
           style="stroke:none;"
           d="M 0.875 -0.59375 C 0.84375 -0.4375 0.78125 -0.203125 0.78125 -0.15625 C 0.78125 0.015625 0.921875 0.109375 1.078125 0.109375 C 1.203125 0.109375 1.375 0.03125 1.453125 -0.171875 C 1.453125 -0.1875 1.578125 -0.65625 1.640625 -0.90625 L 1.859375 -1.796875 C 1.90625 -2.03125 1.96875 -2.25 2.03125 -2.46875 C 2.0625 -2.640625 2.140625 -2.9375 2.15625 -2.96875 C 2.296875 -3.28125 2.828125 -4.1875 3.78125 -4.1875 C 4.234375 -4.1875 4.3125 -3.8125 4.3125 -3.484375 C 4.3125 -3.234375 4.25 -2.953125 4.171875 -2.65625 L 3.890625 -1.5 L 3.6875 -0.75 C 3.65625 -0.546875 3.5625 -0.203125 3.5625 -0.15625 C 3.5625 0.015625 3.703125 0.109375 3.84375 0.109375 C 4.15625 0.109375 4.21875 -0.140625 4.296875 -0.453125 C 4.4375 -1.015625 4.8125 -2.46875 4.890625 -2.859375 C 4.921875 -2.984375 5.453125 -4.1875 6.546875 -4.1875 C 6.96875 -4.1875 7.078125 -3.84375 7.078125 -3.484375 C 7.078125 -2.921875 6.65625 -1.78125 6.453125 -1.25 C 6.375 -1.015625 6.328125 -0.90625 6.328125 -0.703125 C 6.328125 -0.234375 6.671875 0.109375 7.140625 0.109375 C 8.078125 0.109375 8.453125 -1.34375 8.453125 -1.421875 C 8.453125 -1.53125 8.359375 -1.53125 8.328125 -1.53125 C 8.234375 -1.53125 8.234375 -1.5 8.1875 -1.34375 C 8.03125 -0.8125 7.71875 -0.109375 7.171875 -0.109375 C 7 -0.109375 6.921875 -0.203125 6.921875 -0.4375 C 6.921875 -0.6875 7.015625 -0.921875 7.109375 -1.140625 C 7.296875 -1.671875 7.71875 -2.765625 7.71875 -3.34375 C 7.71875 -3.984375 7.3125 -4.40625 6.5625 -4.40625 C 5.828125 -4.40625 5.3125 -3.96875 4.9375 -3.4375 C 4.9375 -3.5625 4.90625 -3.90625 4.625 -4.140625 C 4.375 -4.359375 4.0625 -4.40625 3.8125 -4.40625 C 2.90625 -4.40625 2.421875 -3.765625 2.25 -3.53125 C 2.203125 -4.109375 1.78125 -4.40625 1.328125 -4.40625 C 0.875 -4.40625 0.6875 -4.015625 0.59375 -3.84375 C 0.421875 -3.484375 0.296875 -2.90625 0.296875 -2.875 C 0.296875 -2.765625 0.390625 -2.765625 0.40625 -2.765625 C 0.515625 -2.765625 0.515625 -2.78125 0.578125 -3 C 0.75 -3.703125 0.953125 -4.1875 1.3125 -4.1875 C 1.46875 -4.1875 1.609375 -4.109375 1.609375 -3.734375 C 1.609375 -3.515625 1.578125 -3.40625 1.453125 -2.890625 Z M 0.875 -0.59375 "
           id="path2293" />
      </symbol>
      <symbol
         overflow="visible"
         id="symbol9139">
        <path
           style="stroke:none;"
           d=""
           id="path3404" />
      </symbol>
      <symbol
         overflow="visible"
         id="symbol8818">
        <path
           style="stroke:none;"
           d="M 2.328125 -4.4375 C 2.328125 -4.625 2.328125 -4.625 2.125 -4.625 C 1.671875 -4.1875 1.046875 -4.1875 0.765625 -4.1875 L 0.765625 -3.9375 C 0.921875 -3.9375 1.390625 -3.9375 1.765625 -4.125 L 1.765625 -0.578125 C 1.765625 -0.34375 1.765625 -0.25 1.078125 -0.25 L 0.8125 -0.25 L 0.8125 0 C 0.9375 0 1.796875 -0.03125 2.046875 -0.03125 C 2.265625 -0.03125 3.140625 0 3.296875 0 L 3.296875 -0.25 L 3.03125 -0.25 C 2.328125 -0.25 2.328125 -0.34375 2.328125 -0.578125 Z M 2.328125 -4.4375 "
           id="path4951" />
      </symbol>
    </g>
    <g
       id="g975">
      <symbol
         overflow="visible"
         id="symbol9084">
        <path
           style="stroke:none;"
           d=""
           id="path1067" />
      </symbol>
      <symbol
         overflow="visible"
         id="symbol4658">
        <path
           style="stroke:none;"
           d="M 0.875 -0.59375 C 0.84375 -0.4375 0.78125 -0.203125 0.78125 -0.15625 C 0.78125 0.015625 0.921875 0.109375 1.078125 0.109375 C 1.203125 0.109375 1.375 0.03125 1.453125 -0.171875 C 1.453125 -0.1875 1.578125 -0.65625 1.640625 -0.90625 L 1.859375 -1.796875 C 1.90625 -2.03125 1.96875 -2.25 2.03125 -2.46875 C 2.0625 -2.640625 2.140625 -2.9375 2.15625 -2.96875 C 2.296875 -3.28125 2.828125 -4.1875 3.78125 -4.1875 C 4.234375 -4.1875 4.3125 -3.8125 4.3125 -3.484375 C 4.3125 -3.234375 4.25 -2.953125 4.171875 -2.65625 L 3.890625 -1.5 L 3.6875 -0.75 C 3.65625 -0.546875 3.5625 -0.203125 3.5625 -0.15625 C 3.5625 0.015625 3.703125 0.109375 3.84375 0.109375 C 4.15625 0.109375 4.21875 -0.140625 4.296875 -0.453125 C 4.4375 -1.015625 4.8125 -2.46875 4.890625 -2.859375 C 4.921875 -2.984375 5.453125 -4.1875 6.546875 -4.1875 C 6.96875 -4.1875 7.078125 -3.84375 7.078125 -3.484375 C 7.078125 -2.921875 6.65625 -1.78125 6.453125 -1.25 C 6.375 -1.015625 6.328125 -0.90625 6.328125 -0.703125 C 6.328125 -0.234375 6.671875 0.109375 7.140625 0.109375 C 8.078125 0.109375 8.453125 -1.34375 8.453125 -1.421875 C 8.453125 -1.53125 8.359375 -1.53125 8.328125 -1.53125 C 8.234375 -1.53125 8.234375 -1.5 8.1875 -1.34375 C 8.03125 -0.8125 7.71875 -0.109375 7.171875 -0.109375 C 7 -0.109375 6.921875 -0.203125 6.921875 -0.4375 C 6.921875 -0.6875 7.015625 -0.921875 7.109375 -1.140625 C 7.296875 -1.671875 7.71875 -2.765625 7.71875 -3.34375 C 7.71875 -3.984375 7.3125 -4.40625 6.5625 -4.40625 C 5.828125 -4.40625 5.3125 -3.96875 4.9375 -3.4375 C 4.9375 -3.5625 4.90625 -3.90625 4.625 -4.140625 C 4.375 -4.359375 4.0625 -4.40625 3.8125 -4.40625 C 2.90625 -4.40625 2.421875 -3.765625 2.25 -3.53125 C 2.203125 -4.109375 1.78125 -4.40625 1.328125 -4.40625 C 0.875 -4.40625 0.6875 -4.015625 0.59375 -3.84375 C 0.421875 -3.484375 0.296875 -2.90625 0.296875 -2.875 C 0.296875 -2.765625 0.390625 -2.765625 0.40625 -2.765625 C 0.515625 -2.765625 0.515625 -2.78125 0.578125 -3 C 0.75 -3.703125 0.953125 -4.1875 1.3125 -4.1875 C 1.46875 -4.1875 1.609375 -4.109375 1.609375 -3.734375 C 1.609375 -3.515625 1.578125 -3.40625 1.453125 -2.890625 Z M 0.875 -0.59375 "
           id="path1049" />
      </symbol>
      <symbol
         overflow="visible"
         id="symbol5294">
        <path
           style="stroke:none;"
           d=""
           id="path7069" />
      </symbol>
      <symbol
         overflow="visible"
         id="symbol9457">
        <path
           style="stroke:none;"
           d="M 3.515625 -1.265625 L 3.28125 -1.265625 C 3.265625 -1.109375 3.1875 -0.703125 3.09375 -0.640625 C 3.046875 -0.59375 2.515625 -0.59375 2.40625 -0.59375 L 1.125 -0.59375 C 1.859375 -1.234375 2.109375 -1.4375 2.515625 -1.765625 C 3.03125 -2.171875 3.515625 -2.609375 3.515625 -3.265625 C 3.515625 -4.109375 2.78125 -4.625 1.890625 -4.625 C 1.03125 -4.625 0.4375 -4.015625 0.4375 -3.375 C 0.4375 -3.03125 0.734375 -2.984375 0.8125 -2.984375 C 0.96875 -2.984375 1.171875 -3.109375 1.171875 -3.359375 C 1.171875 -3.484375 1.125 -3.734375 0.765625 -3.734375 C 0.984375 -4.21875 1.453125 -4.375 1.78125 -4.375 C 2.484375 -4.375 2.84375 -3.828125 2.84375 -3.265625 C 2.84375 -2.65625 2.40625 -2.1875 2.1875 -1.9375 L 0.515625 -0.265625 C 0.4375 -0.203125 0.4375 -0.1875 0.4375 0 L 3.3125 0 Z M 3.515625 -1.265625 "
           id="path1922" />
      </symbol>
    </g>
    <marker
       style="overflow:visible"
       id="Arrow1Lend-5-3"
       refX="0"
       refY="0"
       orient="auto"
       inkscape:stockid="Arrow1Lend"
       inkscape:isstock="true">
      <path
         transform="matrix(-0.8,0,0,-0.8,-10,0)"
         style="fill:#000000;fill-opacity:1;fill-rule:evenodd;stroke:#000000;stroke-width:1pt;stroke-opacity:1"
         d="M 0,0 5,-5 -12.5,0 5,5 Z"
         id="path5911-3-6" />
    </marker>
    <g
       id="g206">
      <symbol
         overflow="visible"
         id="symbol7268">
        <path
           style="stroke:none;"
           d=""
           id="path8817" />
      </symbol>
      <symbol
         overflow="visible"
         id="symbol6469">
        <path
           style="stroke:none;"
           d="M 4.53125 -4.984375 C 4.53125 -5.640625 4.359375 -7.03125 3.34375 -7.03125 C 1.953125 -7.03125 0.421875 -4.21875 0.421875 -1.9375 C 0.421875 -1 0.703125 0.109375 1.609375 0.109375 C 3.015625 0.109375 4.53125 -2.75 4.53125 -4.984375 Z M 1.46875 -3.625 C 1.640625 -4.25 1.84375 -5.046875 2.25 -5.765625 C 2.515625 -6.25 2.875 -6.8125 3.328125 -6.8125 C 3.8125 -6.8125 3.875 -6.171875 3.875 -5.609375 C 3.875 -5.109375 3.796875 -4.609375 3.5625 -3.625 Z M 3.46875 -3.296875 C 3.359375 -2.84375 3.15625 -2 2.765625 -1.28125 C 2.421875 -0.59375 2.046875 -0.109375 1.609375 -0.109375 C 1.28125 -0.109375 1.078125 -0.40625 1.078125 -1.328125 C 1.078125 -1.75 1.140625 -2.328125 1.390625 -3.296875 Z M 3.46875 -3.296875 "
           id="path5660" />
      </symbol>
    </g>
    <g
       id="g6107">
      <symbol
         overflow="visible"
         id="symbol1943">
        <path
           style="stroke:none;"
           d=""
           id="path1634" />
      </symbol>
      <symbol
         overflow="visible"
         id="symbol1433">
        <path
           style="stroke:none;"
           d="M 0.875 -0.59375 C 0.84375 -0.4375 0.78125 -0.203125 0.78125 -0.15625 C 0.78125 0.015625 0.921875 0.109375 1.078125 0.109375 C 1.203125 0.109375 1.375 0.03125 1.453125 -0.171875 C 1.453125 -0.1875 1.578125 -0.65625 1.640625 -0.90625 L 1.859375 -1.796875 C 1.90625 -2.03125 1.96875 -2.25 2.03125 -2.46875 C 2.0625 -2.640625 2.140625 -2.9375 2.15625 -2.96875 C 2.296875 -3.28125 2.828125 -4.1875 3.78125 -4.1875 C 4.234375 -4.1875 4.3125 -3.8125 4.3125 -3.484375 C 4.3125 -3.234375 4.25 -2.953125 4.171875 -2.65625 L 3.890625 -1.5 L 3.6875 -0.75 C 3.65625 -0.546875 3.5625 -0.203125 3.5625 -0.15625 C 3.5625 0.015625 3.703125 0.109375 3.84375 0.109375 C 4.15625 0.109375 4.21875 -0.140625 4.296875 -0.453125 C 4.4375 -1.015625 4.8125 -2.46875 4.890625 -2.859375 C 4.921875 -2.984375 5.453125 -4.1875 6.546875 -4.1875 C 6.96875 -4.1875 7.078125 -3.84375 7.078125 -3.484375 C 7.078125 -2.921875 6.65625 -1.78125 6.453125 -1.25 C 6.375 -1.015625 6.328125 -0.90625 6.328125 -0.703125 C 6.328125 -0.234375 6.671875 0.109375 7.140625 0.109375 C 8.078125 0.109375 8.453125 -1.34375 8.453125 -1.421875 C 8.453125 -1.53125 8.359375 -1.53125 8.328125 -1.53125 C 8.234375 -1.53125 8.234375 -1.5 8.1875 -1.34375 C 8.03125 -0.8125 7.71875 -0.109375 7.171875 -0.109375 C 7 -0.109375 6.921875 -0.203125 6.921875 -0.4375 C 6.921875 -0.6875 7.015625 -0.921875 7.109375 -1.140625 C 7.296875 -1.671875 7.71875 -2.765625 7.71875 -3.34375 C 7.71875 -3.984375 7.3125 -4.40625 6.5625 -4.40625 C 5.828125 -4.40625 5.3125 -3.96875 4.9375 -3.4375 C 4.9375 -3.5625 4.90625 -3.90625 4.625 -4.140625 C 4.375 -4.359375 4.0625 -4.40625 3.8125 -4.40625 C 2.90625 -4.40625 2.421875 -3.765625 2.25 -3.53125 C 2.203125 -4.109375 1.78125 -4.40625 1.328125 -4.40625 C 0.875 -4.40625 0.6875 -4.015625 0.59375 -3.84375 C 0.421875 -3.484375 0.296875 -2.90625 0.296875 -2.875 C 0.296875 -2.765625 0.390625 -2.765625 0.40625 -2.765625 C 0.515625 -2.765625 0.515625 -2.78125 0.578125 -3 C 0.75 -3.703125 0.953125 -4.1875 1.3125 -4.1875 C 1.46875 -4.1875 1.609375 -4.109375 1.609375 -3.734375 C 1.609375 -3.515625 1.578125 -3.40625 1.453125 -2.890625 Z M 0.875 -0.59375 "
           id="path6102" />
      </symbol>
    </g>
    <g
       id="g3453">
      <symbol
         overflow="visible"
         id="symbol606">
        <path
           style="stroke:none;"
           d=""
           id="path8057" />
      </symbol>
      <symbol
         overflow="visible"
         id="symbol6604">
        <path
           style="stroke:none;"
           d="M 9.234375 -6.046875 C 9.328125 -6.40625 9.34375 -6.5 10.09375 -6.5 C 10.3125 -6.5 10.40625 -6.5 10.40625 -6.703125 C 10.40625 -6.8125 10.3125 -6.8125 10.140625 -6.8125 L 8.828125 -6.8125 C 8.5625 -6.8125 8.546875 -6.8125 8.4375 -6.625 L 4.796875 -0.9375 L 4.015625 -6.578125 C 3.984375 -6.8125 3.96875 -6.8125 3.703125 -6.8125 L 2.34375 -6.8125 C 2.15625 -6.8125 2.046875 -6.8125 2.046875 -6.625 C 2.046875 -6.5 2.140625 -6.5 2.328125 -6.5 C 2.46875 -6.5 2.640625 -6.484375 2.765625 -6.484375 C 2.921875 -6.453125 2.984375 -6.4375 2.984375 -6.3125 C 2.984375 -6.28125 2.96875 -6.25 2.9375 -6.125 L 1.671875 -1.0625 C 1.578125 -0.65625 1.40625 -0.34375 0.59375 -0.3125 C 0.546875 -0.3125 0.421875 -0.296875 0.421875 -0.125 C 0.421875 -0.03125 0.484375 0 0.5625 0 C 0.875 0 1.21875 -0.03125 1.5625 -0.03125 C 1.890625 -0.03125 2.25 0 2.578125 0 C 2.625 0 2.765625 0 2.765625 -0.203125 C 2.765625 -0.3125 2.65625 -0.3125 2.578125 -0.3125 C 2.015625 -0.3125 1.90625 -0.515625 1.90625 -0.75 C 1.90625 -0.8125 1.90625 -0.875 1.9375 -0.984375 L 3.296875 -6.40625 L 3.3125 -6.40625 L 4.171875 -0.234375 C 4.1875 -0.109375 4.203125 0 4.3125 0 C 4.421875 0 4.484375 -0.109375 4.53125 -0.171875 L 8.5625 -6.484375 L 8.578125 -6.484375 L 7.140625 -0.78125 C 7.046875 -0.390625 7.03125 -0.3125 6.234375 -0.3125 C 6.078125 -0.3125 5.96875 -0.3125 5.96875 -0.125 C 5.96875 0 6.078125 0 6.109375 0 C 6.390625 0 7.0625 -0.03125 7.34375 -0.03125 C 7.75 -0.03125 8.1875 0 8.59375 0 C 8.65625 0 8.78125 0 8.78125 -0.203125 C 8.78125 -0.3125 8.6875 -0.3125 8.5 -0.3125 C 8.140625 -0.3125 7.859375 -0.3125 7.859375 -0.484375 C 7.859375 -0.53125 7.859375 -0.546875 7.90625 -0.734375 Z M 9.234375 -6.046875 "
           id="path2511" />
      </symbol>
    </g>
    <g
       id="g5395">
      <symbol
         overflow="visible"
         id="symbol3049">
        <path
           style="stroke:none;"
           d=""
           id="path5154" />
      </symbol>
      <symbol
         overflow="visible"
         id="symbol5147">
        <path
           style="stroke:none;"
           d="M 3.328125 -3.015625 C 3.390625 -3.265625 3.625 -4.1875 4.3125 -4.1875 C 4.359375 -4.1875 4.609375 -4.1875 4.8125 -4.0625 C 4.53125 -4 4.34375 -3.765625 4.34375 -3.515625 C 4.34375 -3.359375 4.453125 -3.171875 4.71875 -3.171875 C 4.9375 -3.171875 5.25 -3.34375 5.25 -3.75 C 5.25 -4.265625 4.671875 -4.40625 4.328125 -4.40625 C 3.75 -4.40625 3.40625 -3.875 3.28125 -3.65625 C 3.03125 -4.3125 2.5 -4.40625 2.203125 -4.40625 C 1.171875 -4.40625 0.59375 -3.125 0.59375 -2.875 C 0.59375 -2.765625 0.703125 -2.765625 0.71875 -2.765625 C 0.796875 -2.765625 0.828125 -2.796875 0.84375 -2.875 C 1.1875 -3.9375 1.84375 -4.1875 2.1875 -4.1875 C 2.375 -4.1875 2.71875 -4.09375 2.71875 -3.515625 C 2.71875 -3.203125 2.546875 -2.546875 2.1875 -1.140625 C 2.03125 -0.53125 1.671875 -0.109375 1.234375 -0.109375 C 1.171875 -0.109375 0.953125 -0.109375 0.734375 -0.234375 C 0.984375 -0.296875 1.203125 -0.5 1.203125 -0.78125 C 1.203125 -1.046875 0.984375 -1.125 0.84375 -1.125 C 0.53125 -1.125 0.296875 -0.875 0.296875 -0.546875 C 0.296875 -0.09375 0.78125 0.109375 1.21875 0.109375 C 1.890625 0.109375 2.25 -0.59375 2.265625 -0.640625 C 2.390625 -0.28125 2.75 0.109375 3.34375 0.109375 C 4.375 0.109375 4.9375 -1.171875 4.9375 -1.421875 C 4.9375 -1.53125 4.859375 -1.53125 4.828125 -1.53125 C 4.734375 -1.53125 4.71875 -1.484375 4.6875 -1.421875 C 4.359375 -0.34375 3.6875 -0.109375 3.375 -0.109375 C 2.984375 -0.109375 2.828125 -0.421875 2.828125 -0.765625 C 2.828125 -0.984375 2.875 -1.203125 2.984375 -1.640625 Z M 3.328125 -3.015625 "
           id="path8708" />
      </symbol>
    </g>
    <g
       id="g1068">
      <symbol
         overflow="visible"
         id="symbol8568">
        <path
           style="stroke:none;"
           d=""
           id="path4" />
      </symbol>
      <symbol
         overflow="visible"
         id="symbol9499">
        <path
           style="stroke:none;"
           d="M 0.875 -0.59375 C 0.84375 -0.4375 0.78125 -0.203125 0.78125 -0.15625 C 0.78125 0.015625 0.921875 0.109375 1.078125 0.109375 C 1.203125 0.109375 1.375 0.03125 1.453125 -0.171875 C 1.46875 -0.203125 1.796875 -1.5625 1.84375 -1.75 C 1.921875 -2.078125 2.109375 -2.765625 2.15625 -3.046875 C 2.203125 -3.171875 2.484375 -3.640625 2.71875 -3.859375 C 2.796875 -3.921875 3.09375 -4.1875 3.515625 -4.1875 C 3.78125 -4.1875 3.921875 -4.0625 3.9375 -4.0625 C 3.640625 -4.015625 3.421875 -3.78125 3.421875 -3.515625 C 3.421875 -3.359375 3.53125 -3.171875 3.796875 -3.171875 C 4.0625 -3.171875 4.34375 -3.40625 4.34375 -3.765625 C 4.34375 -4.109375 4.03125 -4.40625 3.515625 -4.40625 C 2.875 -4.40625 2.4375 -3.921875 2.25 -3.640625 C 2.15625 -4.09375 1.796875 -4.40625 1.328125 -4.40625 C 0.875 -4.40625 0.6875 -4.015625 0.59375 -3.84375 C 0.421875 -3.5 0.296875 -2.90625 0.296875 -2.875 C 0.296875 -2.765625 0.390625 -2.765625 0.40625 -2.765625 C 0.515625 -2.765625 0.515625 -2.78125 0.578125 -3 C 0.75 -3.703125 0.953125 -4.1875 1.3125 -4.1875 C 1.46875 -4.1875 1.609375 -4.109375 1.609375 -3.734375 C 1.609375 -3.515625 1.578125 -3.40625 1.453125 -2.890625 Z M 0.875 -0.59375 "
           id="path736" />
      </symbol>
    </g>
  </defs>
  <sodipodi:namedview
     id="base"
     pagecolor="#ffffff"
     bordercolor="#666666"
     borderopacity="1.0"
     inkscape:pageopacity="0.0"
     inkscape:pageshadow="2"
     inkscape:zoom="0.70710678"
     inkscape:cx="370.64894"
     inkscape:cy="198.2314"
     inkscape:document-units="mm"
     inkscape:current-layer="layer1"
     inkscape:document-rotation="0"
     showgrid="false"
     inkscape:window-width="956"
     inkscape:window-height="1050"
     inkscape:window-x="0"
     inkscape:window-y="0"
     inkscape:window-maximized="0"
     showguides="false" />
  <metadata
     id="metadata4543">
    <rdf:RDF>
      <cc:Work
         rdf:about="">
        <dc:format>image/svg+xml</dc:format>
        <dc:type
           rdf:resource="http://purl.org/dc/dcmitype/StillImage" />
        <dc:title></dc:title>
      </cc:Work>
    </rdf:RDF>
  </metadata>
  <g
     inkscape:label="Layer 1"
     inkscape:groupmode="layer"
     id="layer1">
    <path
       style="fill:none;stroke:#000000;stroke-width:0.392997;stroke-linecap:butt;stroke-linejoin:miter;stroke-miterlimit:4;stroke-dasharray:none;stroke-opacity:1;marker-end:url(#Arrow1Lend-3)"
       d="M 155.48013,62.061344 V 87.94686"
       id="path5345-7" />
    <g
       id="g1086"
       transform="matrix(1.2494615,0,0,-2.3570922,-15.244965,321.4854)">
      <path
         style="fill:none;stroke:#000000;stroke-width:0.865;stroke-linecap:butt;stroke-linejoin:miter;stroke-miterlimit:4;stroke-dasharray:none;stroke-opacity:1"
         d="M 34.773809,89.580356 H 166.6875"
         id="path10" />
      <g
         id="g1065">
        <path
           style="fill:none;stroke:#000000;stroke-width:0.264583px;stroke-linecap:butt;stroke-linejoin:miter;stroke-opacity:1"
           d="m 38.620446,89.468472 8.151722,-5.479023"
           id="path12" />
        <g
           id="g1046">
          <path
             style="fill:none;stroke:#000000;stroke-width:0.264583px;stroke-linecap:butt;stroke-linejoin:miter;stroke-opacity:1"
             d="m 46.557945,89.468472 8.151723,-5.479023"
             id="path12-9" />
          <path
             style="fill:none;stroke:#000000;stroke-width:0.264583px;stroke-linecap:butt;stroke-linejoin:miter;stroke-opacity:1"
             d="m 54.495445,89.468472 8.151723,-5.479023"
             id="path12-9-2" />
          <path
             style="fill:none;stroke:#000000;stroke-width:0.264583px;stroke-linecap:butt;stroke-linejoin:miter;stroke-opacity:1"
             d="m 62.432945,89.468473 8.151723,-5.479024"
             id="path12-9-6" />
          <path
             style="fill:none;stroke:#000000;stroke-width:0.264583px;stroke-linecap:butt;stroke-linejoin:miter;stroke-opacity:1"
             d="m 70.370445,89.468473 8.151723,-5.479024"
             id="path12-9-2-7" />
          <path
             style="fill:none;stroke:#000000;stroke-width:0.264583px;stroke-linecap:butt;stroke-linejoin:miter;stroke-opacity:1"
             d="m 78.307945,89.468472 8.151723,-5.479023"
             id="path12-9-8" />
          <path
             style="fill:none;stroke:#000000;stroke-width:0.264583px;stroke-linecap:butt;stroke-linejoin:miter;stroke-opacity:1"
             d="m 86.245445,89.468472 8.151723,-5.479023"
             id="path12-9-2-2" />
          <path
             style="fill:none;stroke:#000000;stroke-width:0.264583px;stroke-linecap:butt;stroke-linejoin:miter;stroke-opacity:1"
             d="m 94.182945,89.468473 8.151725,-5.479024"
             id="path12-9-6-6" />
          <path
             style="fill:none;stroke:#000000;stroke-width:0.264583px;stroke-linecap:butt;stroke-linejoin:miter;stroke-opacity:1"
             d="m 102.12045,89.468473 8.15172,-5.479024"
             id="path12-9-2-7-7" />
          <path
             style="fill:none;stroke:#000000;stroke-width:0.264583px;stroke-linecap:butt;stroke-linejoin:miter;stroke-opacity:1"
             d="m 110.05795,89.468479 8.15172,-5.47903"
             id="path12-9-84" />
          <path
             style="fill:none;stroke:#000000;stroke-width:0.264583px;stroke-linecap:butt;stroke-linejoin:miter;stroke-opacity:1"
             d="m 117.99545,89.468479 8.15172,-5.47903"
             id="path12-9-2-1" />
          <path
             style="fill:none;stroke:#000000;stroke-width:0.264583px;stroke-linecap:butt;stroke-linejoin:miter;stroke-opacity:1"
             d="m 125.93295,89.468479 8.15172,-5.47903"
             id="path12-9-6-9" />
          <path
             style="fill:none;stroke:#000000;stroke-width:0.264583px;stroke-linecap:butt;stroke-linejoin:miter;stroke-opacity:1"
             d="m 133.87045,89.468479 8.15172,-5.47903"
             id="path12-9-2-7-0" />
          <path
             style="fill:none;stroke:#000000;stroke-width:0.264583px;stroke-linecap:butt;stroke-linejoin:miter;stroke-opacity:1"
             d="m 141.80795,89.468479 8.15172,-5.47903"
             id="path12-9-8-9" />
          <path
             style="fill:none;stroke:#000000;stroke-width:0.264583px;stroke-linecap:butt;stroke-linejoin:miter;stroke-opacity:1"
             d="m 149.74545,89.468479 8.15172,-5.47903"
             id="path12-9-2-2-5" />
          <path
             style="fill:none;stroke:#000000;stroke-width:0.264583px;stroke-linecap:butt;stroke-linejoin:miter;stroke-opacity:1"
             d="m 157.68295,89.468479 8.15172,-5.47903"
             id="path12-9-6-6-6" />
        </g>
      </g>
    </g>
    <g
       inkscape:label=""
       transform="matrix(0.99352153,0,0,0.99352153,-44.707642,-13.169792)"
       id="g5206">
      <g
         id="g3162">
        <g
           style="fill:#000000;fill-opacity:1"
           id="g6412">
          <use
             xlink:href="#symbol7755"
             x="91.925003"
             y="81.962997"
             id="use8473"
             width="100%"
             height="100%" />
        </g>
      </g>
    </g>
    <path
       style="fill:none;stroke:#000000;stroke-width:0.432274;stroke-linecap:butt;stroke-linejoin:miter;stroke-miterlimit:4;stroke-dasharray:none;stroke-opacity:1;marker-end:url(#Arrow1Lend)"
       d="m 57.805642,60.575482 v 20.32371"
       id="path5345" />
    <path
       style="fill:none;stroke:#000000;stroke-width:0.392997;stroke-linecap:butt;stroke-linejoin:miter;stroke-miterlimit:4;stroke-dasharray:none;stroke-opacity:1;marker-end:url(#Arrow1Lend-5)"
       d="m 152.63293,65.530478 h 25.88554"
       id="path5345-5" />
    <g
       inkscape:label=""
       transform="matrix(0.87120293,0,0,0.87120293,72.740508,26.116849)"
       id="g302">
      <g
         id="g4852">
        <g
           style="fill:#000000;fill-opacity:1"
           id="g8304">
          <use
             xlink:href="#symbol8766"
             x="92.307999"
             y="81.962997"
             id="use6231"
             width="100%"
             height="100%" />
        </g>
        <g
           style="fill:#000000;fill-opacity:1"
           id="g3806">
          <use
             xlink:href="#symbol3636"
             x="91.925003"
             y="81.962997"
             id="use5402"
             width="100%"
             height="100%" />
        </g>
        <g
           style="fill:#000000;fill-opacity:1"
           id="g208">
          <use
             xlink:href="#symbol8391"
             x="96.564003"
             y="83.457001"
             id="use1643"
             width="100%"
             height="100%" />
        </g>
      </g>
    </g>
    <g
       inkscape:label=""
       transform="matrix(0.97531305,0,0,0.97531305,91.232346,-11.401237)"
       id="g458">
      <g
         id="g9578">
        <g
           style="fill:#000000;fill-opacity:1"
           id="g1715">
          <use
             xlink:href="#symbol396"
             x="92.307999"
             y="81.962997"
             id="use4085"
             width="100%"
             height="100%" />
        </g>
        <g
           style="fill:#000000;fill-opacity:1"
           id="g4272">
          <use
             xlink:href="#symbol9673"
             x="91.925003"
             y="81.962997"
             id="use3815"
             width="100%"
             height="100%" />
        </g>
        <g
           style="fill:#000000;fill-opacity:1"
           id="g3018">
          <use
             xlink:href="#symbol8717"
             x="96.564003"
             y="83.457001"
             id="use8366"
             width="100%"
             height="100%" />
        </g>
      </g>
    </g>
    <path
       style="fill:none;stroke:#000000;stroke-width:0.380293"
       id="path236"
       sodipodi:type="arc"
       sodipodi:cx="83.146408"
       sodipodi:cy="65.639091"
       sodipodi:rx="31.945097"
       sodipodi:ry="31.945097"
       sodipodi:start="0.00032727862"
       sodipodi:end="1.5686205"
       sodipodi:arc-type="arc"
       d="M 115.0915,65.649546 A 31.945097,31.945097 0 0 1 83.215915,97.584113"
       sodipodi:open="true" />
    <path
       style="fill:none;stroke:#000000;stroke-width:0.379696px;stroke-linecap:butt;stroke-linejoin:miter;stroke-opacity:1"
       d="m 115.0915,65.649548 h 11.73342 v 43.564622"
       id="path245" />
    <path
       style="fill:none;stroke:#000000;stroke-width:0.379696px;stroke-linecap:butt;stroke-linejoin:miter;stroke-opacity:1"
       d="m 83.215913,97.584114 v 12.417766 l 43.609007,-0.78771"
       id="path247" />
    <path
       style="fill:none;stroke:#000000;stroke-width:0.380294;stroke-linecap:butt;stroke-linejoin:miter;stroke-miterlimit:4;stroke-dasharray:0.380294, 1.52118;stroke-dashoffset:0;stroke-opacity:1"
       d="M 115.0915,65.649545 H 81.92949"
       id="path251" />
    <path
       style="fill:none;stroke:#000000;stroke-width:0.236787;stroke-linecap:butt;stroke-linejoin:miter;stroke-miterlimit:4;stroke-dasharray:none;stroke-opacity:1;marker-end:url(#marker1098)"
       d="m 81.92949,65.649545 22.84724,22.661407"
       id="path1094" />
    <path
       style="fill:#000000;fill-opacity:1;stroke:none;stroke-width:0.350225;stroke-miterlimit:4;stroke-dasharray:none;stroke-dashoffset:0"
       id="path1156"
       sodipodi:type="arc"
       sodipodi:cx="111.75316"
       sodipodi:cy="77.344376"
       sodipodi:rx="1.5163811"
       sodipodi:ry="1.5163811"
       sodipodi:start="0.00032727891"
       sodipodi:end="0"
       sodipodi:open="true"
       sodipodi:arc-type="arc"
       d="m 113.26954,77.344872 a 1.5163811,1.5163811 0 0 1 -1.51675,1.515885 1.5163811,1.5163811 0 0 1 -1.51601,-1.51663 1.5163811,1.5163811 0 0 1 1.5165,-1.516133 1.5163811,1.5163811 0 0 1 1.51626,1.516382" />
    <path
       style="fill:none;stroke:#000000;stroke-width:0.392997;stroke-linecap:butt;stroke-linejoin:miter;stroke-miterlimit:4;stroke-dasharray:none;stroke-opacity:1;marker-end:url(#Arrow1Lend-5-3)"
       d="M 46.427249,104.23714 H 72.312784"
       id="path5345-5-7" />
    <path
       style="fill:none;stroke:#000000;stroke-width:0.379696px;stroke-linecap:butt;stroke-linejoin:miter;stroke-opacity:1"
       d="m 46.318561,100.7301 v 7.03817"
       id="path1285" />
    <path
       style="fill:none;stroke:#000000;stroke-width:0.264053;stroke-linecap:butt;stroke-linejoin:miter;stroke-miterlimit:4;stroke-dasharray:none;stroke-opacity:1"
       d="m 91.943147,65.897668 c 0,0 0.07554,3.736893 -3.775682,6.148058"
       id="path1313" />
    <g
       inkscape:label=""
       transform="translate(0.45864339,-7.4698716)"
       id="g1513">
      <g
         id="g4804">
        <g
           style="fill:#000000;fill-opacity:1"
           id="g9480">
          <use
             xlink:href="#symbol6469"
             x="91.925003"
             y="81.962997"
             id="use4173"
             width="100%"
             height="100%" />
        </g>
      </g>
    </g>
    <g
       inkscape:label=""
       transform="translate(21.760331,-1.9246432)"
       id="g1721">
      <g
         id="g759">
        <g
           style="fill:#000000;fill-opacity:1"
           id="g254">
          <use
             xlink:href="#symbol1433"
             x="91.925003"
             y="81.962997"
             id="use7359"
             width="100%"
             height="100%" />
        </g>
      </g>
    </g>
    <g
       inkscape:label=""
       transform="translate(17.291369,21.006685)"
       id="g1938">
      <g
         id="g2051">
        <g
           style="fill:#000000;fill-opacity:1"
           id="g4359">
          <use
             xlink:href="#symbol6604"
             x="91.925003"
             y="81.962997"
             id="use4984"
             width="100%"
             height="100%" />
        </g>
      </g>
    </g>
    <g
       inkscape:label=""
       transform="matrix(1.1667035,0,0,1.1667035,-51.609425,4.9887216)"
       id="g2164">
      <g
         id="g6476">
        <g
           style="fill:#000000;fill-opacity:1"
           id="g5527">
          <use
             xlink:href="#symbol5147"
             x="91.925003"
             y="81.962997"
             id="use4547"
             width="100%"
             height="100%" />
        </g>
      </g>
    </g>
    <g
       inkscape:label=""
       transform="translate(-3.5837375,1.9443955)"
       id="g2399">
      <g
         id="g2441">
        <g
           style="fill:#000000;fill-opacity:1"
           id="g407">
          <use
             xlink:href="#symbol9499"
             x="91.925003"
             y="81.962997"
             id="use670"
             width="100%"
             height="100%" />
        </g>
      </g>
    </g>
  </g>
</svg>
